<?xml version="1.0" encoding="utf-8"?>
<!-- Generator: Adobe Illustrator 15.0.0, SVG Export Plug-In . SVG Version: 6.00 Build 0)  -->
<!DOCTYPE svg PUBLIC "-//W3C//DTD SVG 1.1//EN" "http://www.w3.org/Graphics/SVG/1.1/DTD/svg11.dtd">
<svg version="1.1" id="Layer_1" xmlns="http://www.w3.org/2000/svg" xmlns:xlink="http://www.w3.org/1999/xlink" x="0px" y="0px"
	 width="400px" height="400px" viewBox="0 0 400 400" enable-background="new 0 0 400 400" xml:space="preserve">
<g>
	<g>
		<g>
			<g>
				<rect x="4.5551758" y="220.7197266" fill="#F2F2F2" width="391.9086914" height="65.4189453"/>
			</g>
			<g>
				<polygon fill="#F2F2F2" points="223.1796875,286.1386719 170.7539062,286.1386719 170.7539062,195.4897461 
					149.0087891,206.828125 197.3691406,117.1411133 244.3271484,206.3330078 223.1796875,194.4682617 				"/>
			</g>
			<g>
				<g>
					<rect x="3.8618164" y="332.0009766" fill="#E6E6E6" width="391.565918" height="65.8066406"/>
					<path fill="#CCCCCC" d="M398.2900391,400.6699219H1.0014648v-71.53125h397.2885742V400.6699219z M6.7250977,394.9453125
						h385.8413086v-60.0820312H6.7250977V394.9453125z"/>
				</g>
				<g>
					<rect x="2.4907227" y="287.0048828" fill="#CCCCCC" width="394.309082" height="34.8583984"/>
					<path fill="#B3B3B3" d="M399.6601562,324.7265625h-400.03125v-40.5839844h400.03125V324.7265625z M5.3530273,319.0019531
						h388.5825195v-29.1347656H5.3530273V319.0019531z"/>
				</g>
				<g>
					<g>
						<path fill="#B3B3B3" d="M2.4912109,324.7265625c-0.7324219,0-1.4648438-0.2802734-2.0239258-0.8398438
							c-1.1176758-1.1181641-1.1176758-2.9296875,0-4.0478516l34.7446289-34.7431641
							c1.1176758-1.1181641,2.9287109-1.1181641,4.046875,0s1.1181641,2.9287109,0,4.046875L4.5141602,323.8867188
							C3.9555664,324.4462891,3.2231445,324.7265625,2.4912109,324.7265625z"/>
					</g>
					<g>
						<path fill="#B3B3B3" d="M2.4912109,311.0107422c-0.7324219,0-1.4648438-0.2792969-2.0239258-0.8388672
							c-1.1176758-1.1181641-1.1176758-2.9287109,0-4.0458984l21.0292969-21.0302734
							c1.1181641-1.1181641,2.9296875-1.1181641,4.0473633,0s1.1176758,2.9287109,0,4.046875L4.5141602,310.171875
							C3.9555664,310.7314453,3.2231445,311.0107422,2.4912109,311.0107422z"/>
					</g>
					<g>
						<path fill="#B3B3B3" d="M2.4912109,297.2958984c-0.7324219,0-1.4648438-0.2802734-2.0239258-0.8388672
							c-1.1176758-1.1181641-1.1176758-2.9306641,0-4.046875l7.3149414-7.3144531
							c1.1176758-1.1181641,2.9282227-1.1181641,4.046875,0c1.1176758,1.1181641,1.1176758,2.9287109,0,4.046875
							l-7.3149414,7.3144531C3.9555664,297.015625,3.2231445,297.2958984,2.4912109,297.2958984z"/>
					</g>
					<g>
						<path fill="#B3B3B3" d="M16.2060547,324.7265625c-0.7329102,0-1.4643555-0.2802734-2.0239258-0.8398438
							c-1.1176758-1.1181641-1.1176758-2.9296875,0-4.0478516l34.7441406-34.7431641
							c1.1181641-1.1181641,2.9291992-1.1181641,4.046875,0c1.1181641,1.1181641,1.1181641,2.9287109,0,4.046875
							l-34.7436523,34.7441406C17.6704102,324.4462891,16.9384766,324.7265625,16.2060547,324.7265625z"/>
					</g>
					<g>
						<path fill="#B3B3B3" d="M29.9208984,324.7265625c-0.7324219,0-1.4648438-0.2802734-2.0234375-0.8398438
							c-1.1181641-1.1181641-1.1181641-2.9296875,0-4.0478516l34.7441406-34.7431641
							c1.1176758-1.1181641,2.9282227-1.1181641,4.0473633,0c1.1171875,1.1181641,1.1171875,2.9287109,0,4.046875
							l-34.7446289,34.7441406C31.3852539,324.4462891,30.652832,324.7265625,29.9208984,324.7265625z"/>
					</g>
					<g>
						<path fill="#B3B3B3" d="M43.6352539,324.7265625c-0.7314453,0-1.4638672-0.2802734-2.0229492-0.8398438
							c-1.1186523-1.1181641-1.1186523-2.9296875,0-4.0478516l34.7441406-34.7431641
							c1.1171875-1.1181641,2.9291992-1.1181641,4.0463867,0c1.1181641,1.1181641,1.1181641,2.9287109,0,4.046875
							l-34.7436523,34.7441406C45.1005859,324.4462891,44.3681641,324.7265625,43.6352539,324.7265625z"/>
					</g>
					<g>
						<path fill="#B3B3B3" d="M57.3510742,324.7265625c-0.7329102,0-1.465332-0.2802734-2.0239258-0.8398438
							c-1.1181641-1.1181641-1.1181641-2.9296875,0-4.0478516l34.7441406-34.7431641
							c1.1176758-1.1181641,2.9287109-1.1181641,4.046875,0s1.1181641,2.9287109,0,4.046875l-34.7446289,34.7441406
							C58.8149414,324.4462891,58.0825195,324.7265625,57.3510742,324.7265625z"/>
					</g>
					<g>
						<path fill="#B3B3B3" d="M71.0654297,324.7265625c-0.7319336,0-1.4643555-0.2802734-2.0239258-0.8398438
							c-1.1171875-1.1181641-1.1171875-2.9296875,0-4.0478516l34.7470703-34.7431641
							c1.1181641-1.1181641,2.9291992-1.1181641,4.0473633,0c1.1176758,1.1181641,1.1176758,2.9287109,0,4.046875
							l-34.7470703,34.7441406C72.5297852,324.4462891,71.7973633,324.7265625,71.0654297,324.7265625z"/>
					</g>
					<g>
						<path fill="#B3B3B3" d="M84.7802734,324.7265625c-0.7329102,0-1.4643555-0.2802734-2.0239258-0.8398438
							c-1.1176758-1.1181641-1.1176758-2.9296875,0-4.0478516l34.7475586-34.7431641
							c1.1171875-1.1181641,2.9282227-1.1181641,4.046875,0c1.1176758,1.1181641,1.1176758,2.9287109,0,4.046875
							l-34.7475586,34.7441406C86.2446289,324.4462891,85.512207,324.7265625,84.7802734,324.7265625z"/>
					</g>
					<g>
						<path fill="#B3B3B3" d="M98.4946289,324.7265625c-0.7319336,0-1.4638672-0.2802734-2.0229492-0.8398438
							c-1.1186523-1.1181641-1.1186523-2.9296875,0-4.0478516l34.746582-34.7431641
							c1.1186523-1.1181641,2.9291992-1.1181641,4.0473633,0s1.1181641,2.9287109,0,4.046875l-34.7470703,34.7441406
							C99.9594727,324.4462891,99.2275391,324.7265625,98.4946289,324.7265625z"/>
					</g>
					<g>
						<path fill="#B3B3B3" d="M112.2124023,324.7265625c-0.7324219,0-1.4643555-0.2802734-2.0229492-0.8398438
							c-1.1186523-1.1181641-1.1186523-2.9296875,0-4.0478516l34.7436523-34.7431641
							c1.1181641-1.1181641,2.9291992-1.1181641,4.0478516,0c1.1171875,1.1181641,1.1171875,2.9287109,0,4.046875
							l-34.7451172,34.7441406C113.6777344,324.4462891,112.9448242,324.7265625,112.2124023,324.7265625z"/>
					</g>
					<g>
						<path fill="#B3B3B3" d="M125.9277344,324.7265625c-0.7324219,0-1.4643555-0.2802734-2.0239258-0.8398438
							c-1.1176758-1.1181641-1.1176758-2.9296875,0-4.0478516l34.7446289-34.7431641
							c1.1176758-1.1181641,2.9287109-1.1181641,4.0458984,0c1.1191406,1.1181641,1.1191406,2.9287109,0,4.046875
							l-34.7431641,34.7441406C127.3916016,324.4462891,126.6601562,324.7265625,125.9277344,324.7265625z"/>
					</g>
					<g>
						<path fill="#B3B3B3" d="M139.6425781,324.7265625c-0.7329102,0-1.4648438-0.2802734-2.0234375-0.8398438
							c-1.1186523-1.1181641-1.1186523-2.9296875,0-4.0478516l34.7436523-34.7431641
							c1.1181641-1.1181641,2.9291992-1.1181641,4.0473633,0c1.1171875,1.1181641,1.1171875,2.9287109,0,4.046875
							l-34.7441406,34.7441406C141.1074219,324.4462891,140.3745117,324.7265625,139.6425781,324.7265625z"/>
					</g>
					<g>
						<path fill="#B3B3B3" d="M153.3569336,324.7265625c-0.7314453,0-1.4643555-0.2802734-2.0234375-0.8398438
							c-1.1181641-1.1181641-1.1181641-2.9296875,0-4.0478516l34.7441406-34.7431641
							c1.1181641-1.1181641,2.9291992-1.1181641,4.0478516,0c1.1176758,1.1181641,1.1176758,2.9287109,0,4.046875
							l-34.7446289,34.7441406C154.8217773,324.4462891,154.0893555,324.7265625,153.3569336,324.7265625z"/>
					</g>
					<g>
						<path fill="#B3B3B3" d="M167.0722656,324.7265625c-0.7329102,0-1.4643555-0.2802734-2.0234375-0.8398438
							c-1.1181641-1.1181641-1.1181641-2.9296875,0-4.0478516l34.7431641-34.7431641
							c1.1191406-1.1181641,2.9296875-1.1181641,4.0478516,0s1.1181641,2.9287109,0,4.046875l-34.7441406,34.7441406
							C168.5371094,324.4462891,167.8041992,324.7265625,167.0722656,324.7265625z"/>
					</g>
					<g>
						<path fill="#B3B3B3" d="M180.7871094,324.7265625c-0.7324219,0-1.4648438-0.2802734-2.0239258-0.8398438
							c-1.1176758-1.1181641-1.1176758-2.9296875,0-4.0478516l34.7436523-34.7431641
							c1.1171875-1.1181641,2.9296875-1.1181641,4.0488281,0c1.1171875,1.1181641,1.1171875,2.9287109,0,4.046875
							l-34.7451172,34.7441406C182.2514648,324.4462891,181.519043,324.7265625,180.7871094,324.7265625z"/>
					</g>
					<g>
						<path fill="#B3B3B3" d="M194.5014648,324.7265625c-0.7324219,0-1.4638672-0.2802734-2.0239258-0.8398438
							c-1.1176758-1.1181641-1.1176758-2.9296875,0-4.0478516l34.7451172-34.7431641
							c1.1171875-1.1181641,2.9287109-1.1181641,4.046875,0s1.1181641,2.9287109,0,4.046875l-34.7441406,34.7441406
							C195.9658203,324.4462891,195.234375,324.7265625,194.5014648,324.7265625z"/>
					</g>
					<g>
						<path fill="#B3B3B3" d="M208.2167969,324.7265625c-0.7324219,0-1.4648438-0.2802734-2.0234375-0.8398438
							c-1.1181641-1.1181641-1.1181641-2.9296875,0-4.0478516l34.7431641-34.7431641
							c1.1191406-1.1181641,2.9296875-1.1181641,4.0478516,0c1.1171875,1.1181641,1.1171875,2.9287109,0,4.046875
							l-34.7441406,34.7441406C209.6816406,324.4462891,208.9482422,324.7265625,208.2167969,324.7265625z"/>
					</g>
					<g>
						<path fill="#B3B3B3" d="M221.9316406,324.7265625c-0.7333984,0-1.4648438-0.2802734-2.0244141-0.8398438
							c-1.1171875-1.1181641-1.1171875-2.9296875,0-4.0478516l34.7441406-34.7431641
							c1.1181641-1.1181641,2.9296875-1.1181641,4.0458984,0c1.1201172,1.1181641,1.1201172,2.9287109,0,4.046875
							l-34.7421875,34.7441406C223.3955078,324.4462891,222.6630859,324.7265625,221.9316406,324.7265625z"/>
					</g>
					<g>
						<path fill="#B3B3B3" d="M235.6455078,324.7265625c-0.7314453,0-1.4628906-0.2802734-2.0224609-0.8398438
							c-1.1181641-1.1181641-1.1181641-2.9296875,0-4.0478516l34.7451172-34.7431641
							c1.1181641-1.1181641,2.9316406-1.1181641,4.0488281,0s1.1171875,2.9287109,0,4.046875l-34.7470703,34.7441406
							C237.1103516,324.4462891,236.3789062,324.7265625,235.6455078,324.7265625z"/>
					</g>
					<g>
						<path fill="#B3B3B3" d="M249.3613281,324.7265625c-0.7324219,0-1.4648438-0.2802734-2.0224609-0.8398438
							c-1.1191406-1.1181641-1.1191406-2.9296875,0-4.0478516l34.7460938-34.7431641
							c1.1171875-1.1181641,2.9287109-1.1181641,4.0458984,0c1.1181641,1.1181641,1.1181641,2.9287109,0,4.046875
							l-34.7460938,34.7441406C250.8261719,324.4462891,250.0927734,324.7265625,249.3613281,324.7265625z"/>
					</g>
					<g>
						<path fill="#B3B3B3" d="M263.0751953,324.7265625c-0.7324219,0-1.4638672-0.2802734-2.0234375-0.8398438
							c-1.1171875-1.1181641-1.1171875-2.9296875,0-4.0478516l34.7470703-34.7431641
							c1.1191406-1.1181641,2.9296875-1.1181641,4.046875,0c1.1191406,1.1181641,1.1191406,2.9287109,0,4.046875
							l-34.7451172,34.7441406C264.5410156,324.4462891,263.8085938,324.7265625,263.0751953,324.7265625z"/>
					</g>
					<g>
						<path fill="#B3B3B3" d="M276.7910156,324.7265625c-0.7324219,0-1.4658203-0.2802734-2.0244141-0.8398438
							c-1.1171875-1.1181641-1.1171875-2.9296875,0-4.0478516l34.7470703-34.7431641
							c1.1181641-1.1181641,2.9296875-1.1181641,4.0478516,0s1.1181641,2.9287109,0,4.046875l-34.7480469,34.7441406
							C278.2558594,324.4462891,277.5224609,324.7265625,276.7910156,324.7265625z"/>
					</g>
					<g>
						<path fill="#B3B3B3" d="M290.5078125,324.7265625c-0.7324219,0-1.4638672-0.2802734-2.0234375-0.8398438
							c-1.1162109-1.1181641-1.1162109-2.9296875,0-4.0478516l34.7451172-34.7431641
							c1.1181641-1.1181641,2.9287109-1.1181641,4.0458984,0c1.1181641,1.1181641,1.1181641,2.9287109,0,4.046875
							l-34.7431641,34.7441406C291.9726562,324.4462891,291.2412109,324.7265625,290.5078125,324.7265625z"/>
					</g>
					<g>
						<path fill="#B3B3B3" d="M304.2236328,324.7265625c-0.7324219,0-1.4648438-0.2802734-2.0234375-0.8398438
							c-1.1181641-1.1181641-1.1181641-2.9296875,0-4.0478516l34.7441406-34.7431641
							c1.1181641-1.1181641,2.9287109-1.1181641,4.046875,0c1.1171875,1.1181641,1.1171875,2.9287109,0,4.046875
							l-34.7451172,34.7441406C305.6894531,324.4462891,304.9550781,324.7265625,304.2236328,324.7265625z"/>
					</g>
					<g>
						<path fill="#B3B3B3" d="M317.9384766,324.7265625c-0.7324219,0-1.4648438-0.2802734-2.0244141-0.8398438
							c-1.1181641-1.1181641-1.1181641-2.9296875,0-4.0478516l34.7451172-34.7431641
							c1.1171875-1.1181641,2.9277344-1.1181641,4.0478516,0c1.1181641,1.1181641,1.1181641,2.9287109,0,4.046875
							l-34.7451172,34.7441406C319.4023438,324.4462891,318.6708984,324.7265625,317.9384766,324.7265625z"/>
					</g>
					<g>
						<path fill="#B3B3B3" d="M331.6533203,324.7265625c-0.7324219,0-1.4638672-0.2802734-2.0244141-0.8398438
							c-1.1171875-1.1181641-1.1171875-2.9296875,0-4.0478516l34.7441406-34.7431641
							c1.1181641-1.1181641,2.9306641-1.1181641,4.0478516,0s1.1171875,2.9287109,0,4.046875l-34.7441406,34.7441406
							C333.1171875,324.4462891,332.3857422,324.7265625,331.6533203,324.7265625z"/>
					</g>
					<g>
						<path fill="#B3B3B3" d="M345.3671875,324.7265625c-0.7324219,0-1.4638672-0.2802734-2.0224609-0.8398438
							c-1.1181641-1.1181641-1.1181641-2.9296875,0-4.0478516l34.7431641-34.7431641
							c1.1171875-1.1181641,2.9306641-1.1181641,4.0488281,0c1.1162109,1.1181641,1.1162109,2.9287109,0,4.046875
							l-34.7460938,34.7441406C346.8330078,324.4462891,346.0996094,324.7265625,345.3671875,324.7265625z"/>
					</g>
					<g>
						<path fill="#B3B3B3" d="M359.0820312,324.7265625c-0.7324219,0-1.4638672-0.2802734-2.0224609-0.8398438
							c-1.1181641-1.1181641-1.1181641-2.9296875,0-4.0478516l34.7441406-34.7431641
							c1.1181641-1.1181641,2.9277344-1.1181641,4.0458984,0c1.1191406,1.1181641,1.1191406,2.9287109,0,4.046875
							l-34.7421875,34.7441406C360.546875,324.4462891,359.8154297,324.7265625,359.0820312,324.7265625z"/>
					</g>
					<g>
						<path fill="#B3B3B3" d="M372.7978516,324.7265625c-0.7324219,0-1.4658203-0.2802734-2.0244141-0.8398438
							c-1.1171875-1.1181641-1.1171875-2.9296875,0-4.0478516l24-23.9990234c1.1181641-1.1181641,2.9306641-1.1181641,4.0478516,0
							c1.1181641,1.1181641,1.1181641,2.9277344,0,4.0458984l-24,24.0009766
							C374.2626953,324.4462891,373.5292969,324.7265625,372.7978516,324.7265625z"/>
					</g>
					<g>
						<path fill="#B3B3B3" d="M386.5126953,324.7265625c-0.7324219,0-1.4658203-0.2802734-2.0253906-0.8398438
							c-1.1171875-1.1181641-1.1171875-2.9296875,0-4.0478516l10.2861328-10.2851562
							c1.1181641-1.1171875,2.9306641-1.1171875,4.0478516,0c1.1181641,1.1191406,1.1181641,2.9287109,0,4.0478516
							l-10.2861328,10.2851562C387.9765625,324.4462891,387.2451172,324.7265625,386.5126953,324.7265625z"/>
					</g>
				</g>
				<g>
					<g>
						<path fill="#CCCCCC" d="M3.4550781,398.0292969c-0.7319336,0-1.4643555-0.2802734-2.0234375-0.8388672
							c-1.1176758-1.1181641-1.1176758-2.9306641,0-4.0478516l63.2197266-63.21875
							c1.1176758-1.1181641,2.9287109-1.1181641,4.046875,0c1.1176758,1.1181641,1.1176758,2.9296875,0,4.046875
							L5.4790039,397.1904297C4.9194336,397.7490234,4.1879883,398.0292969,3.4550781,398.0292969z"/>
					</g>
					<g>
						<path fill="#CCCCCC" d="M3.4550781,384.3144531c-0.7319336,0-1.4643555-0.2792969-2.0234375-0.8388672
							c-1.1176758-1.1181641-1.1176758-2.9287109,0-4.0478516l49.5043945-49.5039062
							c1.1176758-1.1181641,2.9291992-1.1181641,4.046875,0c1.1181641,1.1181641,1.1181641,2.9296875,0,4.046875
							L5.4790039,383.4755859C4.9194336,384.0351562,4.1879883,384.3144531,3.4550781,384.3144531z"/>
					</g>
					<g>
						<path fill="#CCCCCC" d="M3.4550781,370.5976562c-0.7319336,0-1.4643555-0.2792969-2.0234375-0.8378906
							c-1.1176758-1.1181641-1.1176758-2.9287109,0-4.0458984l35.7895508-35.7900391
							c1.1181641-1.1181641,2.9296875-1.1181641,4.0473633,0s1.1176758,2.9296875,0,4.046875L5.4790039,369.7597656
							C4.9194336,370.3183594,4.1879883,370.5976562,3.4550781,370.5976562z"/>
					</g>
					<g>
						<path fill="#CCCCCC" d="M4.1176758,356.2197266c-0.7324219,0-1.4643555-0.28125-2.0234375-0.8398438
							c-1.1181641-1.1181641-1.1181641-2.9287109,0-4.046875l21.4121094-21.4091797
							c1.1176758-1.1181641,2.9291992-1.1181641,4.046875,0c1.1181641,1.1181641,1.1181641,2.9296875,0,4.046875
							L6.1411133,355.3798828C5.5825195,355.9384766,4.8500977,356.2197266,4.1176758,356.2197266z"/>
					</g>
					<g>
						<path fill="#CCCCCC" d="M3.972168,342.6494141c-0.7319336,0-1.4638672-0.2792969-2.0229492-0.8378906
							c-1.1186523-1.1181641-1.1186523-2.9306641,0-4.0488281l7.7866211-7.7851562
							c1.1176758-1.1181641,2.9282227-1.1181641,4.0473633,0c1.1171875,1.1181641,1.1171875,2.9287109,0,4.0458984
							l-7.7871094,7.7880859C5.4365234,342.3701172,4.7050781,342.6494141,3.972168,342.6494141z"/>
					</g>
					<g>
						<path fill="#CCCCCC" d="M14.5288086,400.6699219c-0.7319336,0-1.4643555-0.2802734-2.0234375-0.8378906
							c-1.1181641-1.1181641-1.1181641-2.9306641,0-4.0488281l65.8603516-65.859375
							c1.1176758-1.1181641,2.9287109-1.1181641,4.0473633,0c1.1171875,1.1181641,1.1171875,2.9296875,0,4.046875
							l-65.8598633,65.8613281C15.9936523,400.3896484,15.2612305,400.6699219,14.5288086,400.6699219z"/>
					</g>
					<g>
						<path fill="#CCCCCC" d="M28.2431641,400.6699219c-0.7314453,0-1.4638672-0.2802734-2.0224609-0.8378906
							c-1.1186523-1.1181641-1.1186523-2.9306641,0-4.0488281l65.8603516-65.859375
							c1.1176758-1.1181641,2.9291992-1.1181641,4.0463867,0c1.1181641,1.1181641,1.1181641,2.9296875,0,4.046875
							l-65.8603516,65.8613281C29.7084961,400.3896484,28.9760742,400.6699219,28.2431641,400.6699219z"/>
					</g>
					<g>
						<path fill="#CCCCCC" d="M41.9589844,400.6699219c-0.7329102,0-1.465332-0.2802734-2.0244141-0.8378906
							c-1.1171875-1.1181641-1.1171875-2.9306641,0-4.0488281l65.8608398-65.859375
							c1.1181641-1.1181641,2.9291992-1.1181641,4.046875,0c1.1181641,1.1181641,1.1181641,2.9296875,0,4.046875
							l-65.8598633,65.8613281C43.4228516,400.3896484,42.690918,400.6699219,41.9589844,400.6699219z"/>
					</g>
					<g>
						<path fill="#CCCCCC" d="M55.6733398,400.6699219c-0.7319336,0-1.4643555-0.2802734-2.0234375-0.8378906
							c-1.1181641-1.1181641-1.1181641-2.9306641,0-4.0488281l65.8603516-65.859375
							c1.1181641-1.1181641,2.9291992-1.1181641,4.046875,0c1.1186523,1.1181641,1.1186523,2.9296875,0,4.046875
							l-65.8603516,65.8613281C57.1381836,400.3896484,56.4057617,400.6699219,55.6733398,400.6699219z"/>
					</g>
					<g>
						<path fill="#CCCCCC" d="M69.3881836,400.6699219c-0.7324219,0-1.4638672-0.2802734-2.0239258-0.8378906
							c-1.1176758-1.1181641-1.1176758-2.9306641,0-4.0488281l65.8608398-65.859375
							c1.1181641-1.1181641,2.9291992-1.1181641,4.0473633,0c1.1171875,1.1181641,1.1171875,2.9296875,0,4.046875
							l-65.8603516,65.8613281C70.8525391,400.3896484,70.1210938,400.6699219,69.3881836,400.6699219z"/>
					</g>
					<g>
						<path fill="#CCCCCC" d="M83.1030273,400.6699219c-0.7319336,0-1.4643555-0.2802734-2.0234375-0.8378906
							c-1.1176758-1.1181641-1.1176758-2.9306641,0-4.0488281l65.8608398-65.859375
							c1.1171875-1.1181641,2.9291992-1.1181641,4.046875,0s1.1176758,2.9296875,0,4.046875l-65.8603516,65.8613281
							C84.5678711,400.3896484,83.8349609,400.6699219,83.1030273,400.6699219z"/>
					</g>
					<g>
						<path fill="#CCCCCC" d="M96.8173828,400.6699219c-0.7314453,0-1.4643555-0.2802734-2.0229492-0.8378906
							c-1.1176758-1.1181641-1.1176758-2.9306641,0-4.0488281l65.8603516-65.859375
							c1.1176758-1.1181641,2.9291992-1.1181641,4.046875,0c1.1186523,1.1181641,1.1186523,2.9296875,0,4.046875
							l-65.8598633,65.8613281C98.2822266,400.3896484,97.550293,400.6699219,96.8173828,400.6699219z"/>
					</g>
					<g>
						<path fill="#CCCCCC" d="M110.5327148,400.6699219c-0.7324219,0-1.4643555-0.2802734-2.0234375-0.8378906
							c-1.1176758-1.1181641-1.1176758-2.9306641,0-4.0488281l65.8603516-65.859375
							c1.1181641-1.1181641,2.9291992-1.1181641,4.0473633,0c1.1176758,1.1181641,1.1176758,2.9296875,0,4.046875
							l-65.8608398,65.8613281C111.9975586,400.3896484,111.2651367,400.6699219,110.5327148,400.6699219z"/>
					</g>
					<g>
						<path fill="#CCCCCC" d="M124.2480469,400.6699219c-0.7329102,0-1.4648438-0.2802734-2.0239258-0.8378906
							c-1.1181641-1.1181641-1.1181641-2.9306641,0-4.0488281l65.862793-65.859375
							c1.1186523-1.1181641,2.9296875-1.1181641,4.0478516,0c1.1176758,1.1181641,1.1176758,2.9296875,0,4.046875
							l-65.8642578,65.8613281C125.7119141,400.3896484,124.9804688,400.6699219,124.2480469,400.6699219z"/>
					</g>
					<g>
						<path fill="#CCCCCC" d="M137.9628906,400.6699219c-0.7324219,0-1.4648438-0.2802734-2.0239258-0.8378906
							c-1.1176758-1.1181641-1.1176758-2.9306641,0-4.0488281l65.862793-65.859375
							c1.1191406-1.1181641,2.9306641-1.1181641,4.0478516,0s1.1171875,2.9296875,0,4.046875l-65.8632812,65.8613281
							C139.4267578,400.3896484,138.6948242,400.6699219,137.9628906,400.6699219z"/>
					</g>
					<g>
						<path fill="#CCCCCC" d="M151.6772461,400.6699219c-0.7319336,0-1.4638672-0.2802734-2.0234375-0.8378906
							c-1.1181641-1.1181641-1.1181641-2.9306641,0-4.0488281l65.862793-65.859375
							c1.1181641-1.1181641,2.9296875-1.1181641,4.0478516,0s1.1181641,2.9296875,0,4.046875l-65.862793,65.8613281
							C153.1420898,400.3896484,152.409668,400.6699219,151.6772461,400.6699219z"/>
					</g>
					<g>
						<path fill="#CCCCCC" d="M165.3955078,400.6699219c-0.7329102,0-1.4648438-0.2802734-2.0244141-0.8378906
							c-1.1171875-1.1181641-1.1171875-2.9306641,0-4.0488281l65.8613281-65.859375
							c1.1181641-1.1181641,2.9287109-1.1181641,4.0458984,0c1.1181641,1.1181641,1.1181641,2.9296875,0,4.046875
							l-65.859375,65.8613281C166.859375,400.3896484,166.1269531,400.6699219,165.3955078,400.6699219z"/>
					</g>
					<g>
						<path fill="#CCCCCC" d="M179.109375,400.6699219c-0.7314453,0-1.4638672-0.2802734-2.0229492-0.8378906
							c-1.1186523-1.1181641-1.1186523-2.9306641,0-4.0488281l65.8608398-65.859375
							c1.1171875-1.1181641,2.9287109-1.1181641,4.046875,0c1.1171875,1.1181641,1.1171875,2.9296875,0,4.046875
							l-65.8608398,65.8613281C180.574707,400.3896484,179.8422852,400.6699219,179.109375,400.6699219z"/>
					</g>
					<g>
						<path fill="#CCCCCC" d="M192.8242188,400.6699219c-0.7314453,0-1.4643555-0.2802734-2.0229492-0.8378906
							c-1.1186523-1.1181641-1.1186523-2.9306641,0-4.0488281l65.8598633-65.859375
							c1.1181641-1.1181641,2.9287109-1.1181641,4.0478516,0s1.1191406,2.9296875,0,4.046875l-65.8603516,65.8613281
							C194.2890625,400.3896484,193.5576172,400.6699219,192.8242188,400.6699219z"/>
					</g>
					<g>
						<path fill="#CCCCCC" d="M206.5400391,400.6699219c-0.7324219,0-1.4648438-0.2802734-2.0244141-0.8378906
							c-1.1181641-1.1181641-1.1181641-2.9306641,0-4.0488281l65.8603516-65.859375
							c1.1181641-1.1181641,2.9296875-1.1181641,4.0478516,0c1.1171875,1.1181641,1.1171875,2.9296875,0,4.046875
							l-65.859375,65.8613281C208.0048828,400.3896484,207.2724609,400.6699219,206.5400391,400.6699219z"/>
					</g>
					<g>
						<path fill="#CCCCCC" d="M220.2548828,400.6699219c-0.7314453,0-1.4648438-0.2802734-2.0234375-0.8378906
							c-1.1191406-1.1181641-1.1191406-2.9306641,0-4.0488281l65.8603516-65.859375
							c1.1171875-1.1181641,2.9287109-1.1181641,4.0458984,0c1.1181641,1.1181641,1.1181641,2.9296875,0,4.046875
							l-65.859375,65.8613281C221.7197266,400.3896484,220.9863281,400.6699219,220.2548828,400.6699219z"/>
					</g>
					<g>
						<path fill="#CCCCCC" d="M233.9697266,400.6699219c-0.7324219,0-1.4648438-0.2802734-2.0244141-0.8378906
							c-1.1181641-1.1181641-1.1181641-2.9306641,0-4.0488281l65.8613281-65.859375
							c1.1181641-1.1181641,2.9277344-1.1181641,4.0458984,0c1.1171875,1.1181641,1.1171875,2.9296875,0,4.046875
							l-65.859375,65.8613281C235.4335938,400.3896484,234.7011719,400.6699219,233.9697266,400.6699219z"/>
					</g>
					<g>
						<path fill="#CCCCCC" d="M247.6835938,400.6699219c-0.7314453,0-1.4638672-0.2802734-2.0224609-0.8378906
							c-1.1171875-1.1181641-1.1171875-2.9306641,0-4.0488281l65.859375-65.859375
							c1.1191406-1.1181641,2.9287109-1.1181641,4.0478516,0c1.1181641,1.1181641,1.1181641,2.9296875,0,4.046875
							l-65.8613281,65.8613281C249.1484375,400.3896484,248.4160156,400.6699219,247.6835938,400.6699219z"/>
					</g>
					<g>
						<path fill="#CCCCCC" d="M261.3994141,400.6699219c-0.7333984,0-1.4648438-0.2802734-2.0234375-0.8378906
							c-1.1181641-1.1181641-1.1181641-2.9306641,0-4.0488281l65.859375-65.859375
							c1.1171875-1.1181641,2.9296875-1.1181641,4.046875,0c1.1191406,1.1181641,1.1191406,2.9296875,0,4.046875
							l-65.8603516,65.8613281C262.8632812,400.3896484,262.1308594,400.6699219,261.3994141,400.6699219z"/>
					</g>
					<g>
						<path fill="#CCCCCC" d="M275.1132812,400.6699219c-0.7314453,0-1.4638672-0.2802734-2.0234375-0.8378906
							c-1.1171875-1.1181641-1.1171875-2.9306641,0-4.0488281l65.8623047-65.859375
							c1.1162109-1.1181641,2.9277344-1.1181641,4.0458984,0c1.1171875,1.1181641,1.1171875,2.9296875,0,4.046875
							l-65.859375,65.8613281C276.5791016,400.3896484,275.8457031,400.6699219,275.1132812,400.6699219z"/>
					</g>
					<g>
						<path fill="#CCCCCC" d="M288.8291016,400.6699219c-0.7324219,0-1.4658203-0.2802734-2.0244141-0.8378906
							c-1.1191406-1.1181641-1.1191406-2.9306641,0-4.0488281l65.8603516-65.859375
							c1.1181641-1.1181641,2.9296875-1.1181641,4.0478516,0c1.1191406,1.1181641,1.1191406,2.9296875,0,4.046875
							l-65.8603516,65.8613281C290.2939453,400.3896484,289.5615234,400.6699219,288.8291016,400.6699219z"/>
					</g>
					<g>
						<path fill="#CCCCCC" d="M302.5429688,400.6699219c-0.7314453,0-1.4638672-0.2802734-2.0234375-0.8378906
							c-1.1171875-1.1181641-1.1171875-2.9306641,0-4.0488281l65.8642578-65.859375
							c1.1171875-1.1181641,2.9287109-1.1181641,4.046875,0s1.1181641,2.9296875,0,4.046875l-65.8642578,65.8613281
							C304.0068359,400.3896484,303.2763672,400.6699219,302.5429688,400.6699219z"/>
					</g>
					<g>
						<path fill="#CCCCCC" d="M316.2587891,400.6699219c-0.7324219,0-1.4648438-0.2802734-2.0234375-0.8378906
							c-1.1181641-1.1181641-1.1181641-2.9306641,0-4.0488281l65.8613281-65.859375
							c1.1181641-1.1181641,2.9306641-1.1181641,4.0488281,0s1.1181641,2.9296875,0,4.046875L318.28125,399.8320312
							C317.7226562,400.3896484,316.9892578,400.6699219,316.2587891,400.6699219z"/>
					</g>
					<g>
						<path fill="#CCCCCC" d="M329.9755859,400.6699219c-0.7314453,0-1.4638672-0.2802734-2.0234375-0.8378906
							c-1.1181641-1.1181641-1.1181641-2.9306641,0-4.0488281l65.8613281-65.859375
							c1.1171875-1.1181641,2.9287109-1.1181641,4.0458984,0s1.1171875,2.9296875,0,4.046875L332,399.8320312
							C331.4404297,400.3896484,330.7080078,400.6699219,329.9755859,400.6699219z"/>
					</g>
					<g>
						<path fill="#CCCCCC" d="M343.6904297,400.6699219c-0.7314453,0-1.4638672-0.2802734-2.0224609-0.8378906
							c-1.1201172-1.1181641-1.1201172-2.9306641,0-4.0488281l51.1279297-51.1298828
							c1.1181641-1.1181641,2.9277344-1.1181641,4.046875,0c1.1181641,1.1181641,1.1181641,2.9296875,0,4.0458984
							l-51.1289062,51.1328125C345.1552734,400.3896484,344.4228516,400.6699219,343.6904297,400.6699219z"/>
					</g>
					<g>
						<path fill="#CCCCCC" d="M357.4072266,400.6699219c-0.734375,0-1.4658203-0.2802734-2.0253906-0.8378906
							c-1.1171875-1.1181641-1.1171875-2.9306641,0-4.0488281l37.8125-37.8115234
							c1.1191406-1.1181641,2.9296875-1.1181641,4.046875,0c1.1191406,1.1181641,1.1191406,2.9287109,0,4.0458984
							l-37.8125,37.8144531C358.8691406,400.3896484,358.1376953,400.6699219,357.4072266,400.6699219z"/>
					</g>
					<g>
						<path fill="#CCCCCC" d="M371.1201172,400.6699219c-0.7324219,0-1.4638672-0.2802734-2.0224609-0.8378906
							c-1.1181641-1.1181641-1.1181641-2.9306641,0-4.0488281l23.9990234-23.9990234
							c1.1191406-1.1191406,2.9306641-1.1191406,4.0478516,0c1.1171875,1.1181641,1.1171875,2.9287109,0,4.046875l-24,24.0009766
							C372.5859375,400.3896484,371.8525391,400.6699219,371.1201172,400.6699219z"/>
					</g>
					<g>
						<path fill="#CCCCCC" d="M384.8349609,400.6699219c-0.7324219,0-1.4648438-0.2802734-2.0224609-0.8378906
							c-1.1191406-1.1181641-1.1191406-2.9306641,0-4.0488281l10.2841797-10.2851562
							c1.1191406-1.1171875,2.9306641-1.1171875,4.0478516,0c1.1171875,1.1201172,1.1171875,2.9296875,0,4.0478516
							l-10.2851562,10.2861328C386.3007812,400.3896484,385.5673828,400.6699219,384.8349609,400.6699219z"/>
					</g>
				</g>
				<g>
					<g>
						<rect x="6.1484375" y="223.6894531" fill="#FFE357" width="164.9145508" height="9.3720703"/>
						<path fill="#FFE357" d="M173.925293,235.9238281H3.2851562V220.828125H173.925293V235.9238281z M9.0087891,230.2001953
							h159.1923828v-3.6474609H9.0087891V230.2001953z"/>
					</g>
					<g>
						<rect x="222.9599609" y="223.6894531" fill="#FFE357" width="170.6347656" height="9.3720703"/>
						<path fill="#FFE357" d="M396.4560547,235.9238281h-176.359375V220.828125h176.359375V235.9238281z M225.8222656,230.2001953
							h164.9101562v-3.6474609H225.8222656V230.2001953z"/>
					</g>
					<g>
						<g>
							<path fill="#F05458" d="M83.0668945,278.6699219H28.5004883c-1.5820312,0-2.8618164-1.2802734-2.8618164-2.8613281
								v-18.7441406c0-1.5820312,1.2797852-2.8603516,2.8618164-2.8603516h54.5664062
								c1.5820312,0,2.8618164,1.2783203,2.8618164,2.8603516v18.7441406
								C85.9287109,277.3896484,84.6489258,278.6699219,83.0668945,278.6699219z M31.3632812,272.9453125h48.8413086v-13.0185547
								H31.3632812V272.9453125z"/>
						</g>
						<g>
							<path fill="#F05458" d="M158.8105469,278.6699219h-54.5664062c-1.5820312,0-2.8618164-1.2802734-2.8618164-2.8613281
								v-18.7441406c0-1.5820312,1.2797852-2.8603516,2.8618164-2.8603516h54.5664062
								c1.5820312,0,2.8613281,1.2783203,2.8613281,2.8603516v18.7441406
								C161.671875,277.3896484,160.3925781,278.6699219,158.8105469,278.6699219z M107.105957,272.9453125h48.8417969v-13.0185547
								H107.105957V272.9453125z"/>
						</g>
						<g>
							<path fill="#F05458" d="M104.2441406,269.2988281H83.0668945c-1.581543,0-2.8623047-1.2802734-2.8623047-2.8632812
								c0-1.5810547,1.2807617-2.8623047,2.8623047-2.8623047h21.1772461c1.5820312,0,2.8618164,1.28125,2.8618164,2.8623047
								C107.105957,268.0185547,105.8261719,269.2988281,104.2441406,269.2988281z"/>
						</g>
						<g>
							<path fill="#F05458" d="M28.2070312,269.2988281H7.0307617c-1.5820312,0-2.8632812-1.2802734-2.8632812-2.8632812
								c0-1.5810547,1.28125-2.8623047,2.8632812-2.8623047h21.1762695c1.5825195,0,2.8618164,1.28125,2.8618164,2.8623047
								C31.0688477,268.0185547,29.7895508,269.2988281,28.2070312,269.2988281z"/>
						</g>
						<g>
							<path fill="#F05458" d="M388.4628906,269.2988281h-21.1767578c-1.5820312,0-2.8613281-1.2802734-2.8613281-2.8632812
								c0-1.5810547,1.2792969-2.8623047,2.8613281-2.8623047h21.1767578c1.5820312,0,2.8632812,1.28125,2.8632812,2.8623047
								C391.3261719,268.0185547,390.0449219,269.2988281,388.4628906,269.2988281z"/>
						</g>
						<g>
							<path fill="#F05458" d="M170.8564453,269.2988281h-12.0458984c-1.5820312,0-2.862793-1.2802734-2.862793-2.8632812
								c0-1.5810547,1.2807617-2.8623047,2.862793-2.8623047h9.4047852l-0.0141602-64.2216797l-20.0146484,11.2167969
								c-1.112793,0.6201172-2.4960938,0.4355469-3.3989258-0.4472656
								c-0.9077148-0.8857422-1.1235352-2.2646484-0.5336914-3.3847656l50.3339844-95.3476562
								c0.4975586-0.9384766,1.4707031-1.5253906,2.5327148-1.5253906l0,0c1.0620117,0,2.034668,0.5869141,2.5322266,1.5253906
								l50.3061523,95.3476562c0.5898438,1.1240234,0.375,2.5009766-0.5341797,3.3847656
								c-0.9111328,0.8886719-2.3007812,1.0625-3.3984375,0.4472656l-19.9833984-11.2104492v64.8930664
								c0,1.5820312-1.2802734,2.8623047-2.8623047,2.8623047s-2.8632812-1.2802734-2.8632812-2.8623047v-69.7817383
								c0-1.0170898,0.5400391-1.9570312,1.4189453-2.4707031c0.875-0.512207,1.9580078-0.5200195,2.8457031-0.0244141
								l15.7880859,8.8564453l-43.2495117-81.9736328l-43.2797852,81.9829102l15.8222656-8.8657227
								c0.8881836-0.4956055,1.9697266-0.487793,2.8481445,0.0268555c0.8745117,0.5112305,1.4140625,1.453125,1.4140625,2.4682617
								v69.7817383l-0.2207031,2.4541016C173.5673828,268.1748047,172.3325195,269.2988281,170.8564453,269.2988281z"/>
						</g>
						<g>
							<path fill="#F05458" d="M227.3144531,191.8779297c-1.0292969,0-2.0205078-0.5532227-2.5361328-1.5263672
								l-27.6635742-52.4355469l-27.6811523,52.4355469c-0.7373047,1.4008789-2.4731445,1.9316406-3.8681641,1.1967773
								c-1.3974609-0.737793-1.934082-2.4707031-1.1962891-3.8686523l30.2133789-57.2314453
								c0.4980469-0.9394531,1.4702148-1.5263672,2.5322266-1.5263672l0,0c1.0620117,0,2.0351562,0.5869141,2.5322266,1.5263672
								l30.1967773,57.2314453c0.7382812,1.3979492,0.2011719,3.1308594-1.1962891,3.8686523
								C228.2197266,191.7719727,227.7646484,191.8779297,227.3144531,191.8779297z"/>
						</g>
					</g>
					<g>
						<g>
							<path fill="#F05458" d="M367.2861328,278.6699219h-54.5654297c-1.5830078,0-2.8623047-1.2802734-2.8623047-2.8613281
								v-18.7441406c0-1.5820312,1.2792969-2.8603516,2.8623047-2.8603516h54.5654297
								c1.5820312,0,2.8623047,1.2783203,2.8623047,2.8603516v18.7441406
								C370.1484375,277.3896484,368.8681641,278.6699219,367.2861328,278.6699219z M315.5820312,272.9453125h48.8427734
								v-13.0185547h-48.8427734V272.9453125z"/>
						</g>
						<g>
							<path fill="#F05458" d="M291.5419922,278.6699219h-54.5634766c-1.5820312,0-2.8613281-1.2802734-2.8613281-2.8613281
								v-18.7441406c0-1.5820312,1.2792969-2.8603516,2.8613281-2.8603516h54.5634766
								c1.5820312,0,2.8632812,1.2783203,2.8632812,2.8603516v18.7441406
								C294.4052734,277.3896484,293.1240234,278.6699219,291.5419922,278.6699219z M239.8417969,272.9453125h48.8388672
								v-13.0185547h-48.8388672V272.9453125z"/>
						</g>
						<g>
							<path fill="#F05458" d="M312.7207031,269.2988281h-21.1787109c-1.5810547,0-2.8613281-1.2802734-2.8613281-2.8632812
								c0-1.5810547,1.2802734-2.8623047,2.8613281-2.8623047h21.1787109c1.5820312,0,2.8613281,1.28125,2.8613281,2.8623047
								C315.5820312,268.0185547,314.3027344,269.2988281,312.7207031,269.2988281z"/>
						</g>
						<g>
							<path fill="#F05458" d="M236.9785156,269.2988281h-12.0488281c-1.5820312,0-2.8613281-1.2802734-2.8613281-2.8632812
								c0-1.5810547,1.2792969-2.8623047,2.8613281-2.8623047h12.0488281c1.5820312,0,2.8632812,1.28125,2.8632812,2.8623047
								C239.8417969,268.0185547,238.5605469,269.2988281,236.9785156,269.2988281z"/>
						</g>
					</g>
					<g>
						<path fill="#B3B3B3" d="M169.2827148,246.8974609h-8.5859375v-5.7246094h8.5859375V246.8974609z M152.1108398,246.8974609
							h-8.5864258v-5.7246094h8.5864258V246.8974609z M134.9384766,246.8974609h-8.5864258v-5.7246094h8.5864258V246.8974609z
							 M117.7661133,246.8974609h-8.5859375v-5.7246094h8.5859375V246.8974609z M100.5942383,246.8974609h-8.5859375v-5.7246094
							h8.5859375V246.8974609z M83.4223633,246.8974609h-8.5864258v-5.7246094h8.5864258V246.8974609z M66.25,246.8974609
							h-8.5869141v-5.7246094H66.25V246.8974609z M49.0771484,246.8974609h-8.5859375v-5.7246094h8.5859375V246.8974609z
							 M31.9052734,246.8974609h-8.5859375v-5.7246094h8.5859375V246.8974609z M14.7333984,246.8974609H6.1464844v-5.7246094
							h8.5869141V246.8974609z"/>
					</g>
					<g>
						<path fill="#B3B3B3" d="M388.8398438,246.8974609h-8.5849609v-5.7246094h8.5849609V246.8974609z M371.6679688,246.8974609
							h-8.5849609v-5.7246094h8.5849609V246.8974609z M354.4960938,246.8974609h-8.5859375v-5.7246094h8.5859375V246.8974609z
							 M337.3242188,246.8974609h-8.5878906v-5.7246094h8.5878906V246.8974609z M320.1523438,246.8974609h-8.5878906v-5.7246094
							h8.5878906V246.8974609z M302.9804688,246.8974609h-8.5878906v-5.7246094h8.5878906V246.8974609z M285.8076172,246.8974609
							h-8.5869141v-5.7246094h8.5869141V246.8974609z M268.6357422,246.8974609h-8.5869141v-5.7246094h8.5869141V246.8974609z
							 M251.4638672,246.8974609h-8.5878906v-5.7246094h8.5878906V246.8974609z M234.2900391,246.8974609h-8.5859375v-5.7246094
							h8.5859375V246.8974609z"/>
					</g>
					<g>
						<path fill="#F05458" d="M181.8295898,259.9267578c-1.5820312,0-2.8623047-1.2802734-2.8623047-2.8623047
							c0-4.1337891,2.0126953-6.3544922,3.4829102-7.9794922c1.2495117-1.3808594,2.0039062-2.2138672,2.0039062-4.1376953
							c0-1.9267578-0.7543945-2.7597656-2.0039062-4.140625c-1.4702148-1.6240234-3.4829102-3.8457031-3.4829102-7.9804688
							c0-4.1308594,2.0151367-6.3515625,3.4848633-7.9755859c1.2475586-1.375,2.0019531-2.2080078,2.0019531-4.1308594
							c0-1.5820312,1.2792969-2.8613281,2.8613281-2.8613281c1.5825195,0,2.8623047,1.2792969,2.8623047,2.8613281
							c0,4.1308594-2.0146484,6.3525391-3.4853516,7.9755859c-1.2460938,1.3759766-2.0014648,2.2089844-2.0014648,4.1308594
							c0,1.9267578,0.7553711,2.7607422,2.0048828,4.140625c1.4697266,1.6230469,3.4819336,3.8457031,3.4819336,7.9804688
							c0,4.1328125-2.012207,6.3554688-3.4819336,7.9785156c-1.2495117,1.3808594-2.0048828,2.2138672-2.0048828,4.1386719
							C184.690918,258.6464844,183.4116211,259.9267578,181.8295898,259.9267578z"/>
					</g>
					<g>
						<path fill="#F05458" d="M199.0742188,225.8417969c-1.5820312,0-2.8623047-1.2792969-2.8623047-2.8613281
							c0-4.3232422,1.8896484-6.5849609,3.4077148-8.4042969c1.2519531-1.5,2.0786133-2.4892578,2.0786133-4.7402344
							c0-2.2490234-0.8266602-3.2402344-2.0786133-4.7392578c-1.5180664-1.8203125-3.4077148-4.0839844-3.4077148-8.4082031
							c0-4.3208008,1.8896484-6.5849609,3.4106445-8.4023438c1.2490234-1.4975586,2.0756836-2.4868164,2.0756836-4.734375
							c0-1.5820312,1.28125-2.8613281,2.8632812-2.8613281s2.8613281,1.2792969,2.8613281,2.8613281
							c0,4.3217773-1.8886719,6.5844727-3.4101562,8.4018555c-1.2490234,1.4985352-2.0761719,2.487793-2.0761719,4.7348633
							c0,2.25,0.8271484,3.2392578,2.0791016,4.7412109c1.5185547,1.8173828,3.4072266,4.0820312,3.4072266,8.40625
							s-1.8886719,6.5878906-3.4101562,8.4082031c-1.2490234,1.5-2.0761719,2.4892578-2.0761719,4.7363281
							C201.9365234,224.5625,200.65625,225.8417969,199.0742188,225.8417969z"/>
					</g>
					<g>
						<path fill="#F05458" d="M208.9023438,253.4482422c-1.5820312,0-2.8632812-1.2792969-2.8632812-2.8613281
							c0-3.7568359,2.1269531-5.6923828,3.6806641-7.1005859c1.3652344-1.2373047,1.8056641-1.7324219,1.8056641-2.8603516
							c0-1.1298828-0.4404297-1.625-1.8056641-2.8632812c-1.5537109-1.4082031-3.6806641-3.3427734-3.6806641-7.0996094
							c0-3.7539062,2.1308594-5.6845703,3.6845703-7.0927734c1.3613281-1.234375,1.8017578-1.7275391,1.8017578-2.8505859
							c0-1.5820312,1.28125-2.8613281,2.8613281-2.8613281c1.5839844,0,2.8623047,1.2792969,2.8623047,2.8613281
							c0,3.7529297-2.1289062,5.6845703-3.6835938,7.09375c-1.359375,1.234375-1.8027344,1.7275391-1.8027344,2.8496094
							c0,1.1298828,0.4433594,1.6240234,1.8056641,2.8623047c1.5546875,1.4091797,3.6806641,3.34375,3.6806641,7.1005859
							c0,3.7558594-2.1259766,5.6894531-3.6806641,7.0986328c-1.3623047,1.2382812-1.8056641,1.7324219-1.8056641,2.8623047
							C211.7626953,252.1689453,210.4833984,253.4482422,208.9023438,253.4482422z"/>
					</g>
					<g>
						<path fill="#F05458" d="M125.9921875,200.3525391c-4.1318359,0-6.3535156-2.0131836-7.9746094-3.4829102
							c-1.3803711-1.2490234-2.2109375-2.003418-4.1367188-2.003418c-1.925293,0-2.7553711,0.7543945-4.1362305,2.0014648
							c-1.621582,1.4697266-3.8457031,3.4848633-7.9794922,3.4848633c-4.1342773,0-6.3554688-2.0131836-7.9794922-3.4829102
							c-1.3813477-1.2490234-2.2133789-2.003418-4.1391602-2.003418c-1.5820312,0-2.862793-1.2802734-2.862793-2.8613281
							c0-1.5830078,1.2807617-2.8632812,2.862793-2.8632812c4.1333008,0,6.3549805,2.012207,7.9790039,3.4829102
							c1.3813477,1.25,2.2143555,2.0043945,4.1396484,2.0043945c1.9262695,0,2.7583008-0.7543945,4.1396484-2.0043945
							c1.6206055-1.4707031,3.8452148-3.4829102,7.9760742-3.4829102c4.1337891,0,6.355957,2.0161133,7.9794922,3.4858398
							c1.3789062,1.2470703,2.2089844,2.0014648,4.1318359,2.0014648c1.5820312,0,2.8613281,1.2802734,2.8613281,2.8613281
							C128.8535156,199.0732422,127.5742188,200.3525391,125.9921875,200.3525391z"/>
					</g>
					<g>
						<path fill="#57D2FF" d="M274.8486328,137.3876953c-4.1298828,0-6.3535156-2.015625-7.9775391-3.4853516
							c-1.375-1.2460938-2.2080078-2.0014648-4.1298828-2.0014648c-1.9267578,0-2.7587891,0.7553711-4.140625,2.0043945
							c-1.6230469,1.4707031-3.8447266,3.4824219-7.9794922,3.4824219c-4.1337891,0-6.3574219-2.015625-7.9794922-3.4853516
							c-1.3808594-1.2460938-2.2099609-2.0014648-4.1357422-2.0014648c-1.5820312,0-2.8623047-1.2792969-2.8623047-2.8613281
							c0-1.5825195,1.2802734-2.8623047,2.8623047-2.8623047c4.1308594,0,6.3554688,2.012207,7.9765625,3.4824219
							c1.3808594,1.25,2.2138672,2.0043945,4.1386719,2.0043945c1.9257812,0,2.7597656-0.7543945,4.140625-2.0043945
							c1.6230469-1.4702148,3.8457031-3.4824219,7.9794922-3.4824219c4.1298828,0,6.3515625,2.015625,7.9775391,3.4853516
							c1.3730469,1.2470703,2.2060547,2.0014648,4.1298828,2.0014648c1.5810547,0,2.8623047,1.2797852,2.8623047,2.8618164
							C277.7109375,136.1074219,276.4296875,137.3876953,274.8486328,137.3876953z"/>
					</g>
					<g>
						<path fill="#57D2FF" d="M370.8554688,126.9819336c-4.1298828,0-6.3535156-2.012207-7.9746094-3.4824219
							c-1.3798828-1.2490234-2.2099609-2.003418-4.1357422-2.003418c-1.9267578,0-2.7568359,0.7543945-4.1367188,2.0009766
							c-1.6210938,1.4702148-3.8466797,3.4848633-7.9804688,3.4848633c-4.1328125,0-6.3554688-2.012207-7.9794922-3.4824219
							c-1.3808594-1.2490234-2.2128906-2.003418-4.1396484-2.003418c-1.5810547,0-2.8613281-1.2802734-2.8613281-2.8623047
							s1.2802734-2.8623047,2.8613281-2.8623047c4.1337891,0,6.3564453,2.012207,7.9804688,3.4829102
							c1.3798828,1.2495117,2.2138672,2.0039062,4.1386719,2.0039062c1.9257812,0,2.7597656-0.7543945,4.1396484-2.0039062
							c1.6210938-1.4707031,3.8447266-3.4829102,7.9775391-3.4829102s6.3544922,2.015625,7.9804688,3.4853516
							c1.3769531,1.2470703,2.2060547,2.0014648,4.1298828,2.0014648c1.5820312,0,2.8603516,1.2797852,2.8603516,2.8618164
							C373.7158203,125.7026367,372.4375,126.9819336,370.8554688,126.9819336z"/>
					</g>
					<g>
						<path fill="#F05458" d="M372.8613281,183.3037109c-4.1308594,0-6.3515625-2.015625-7.9755859-3.4853516
							c-1.375-1.2470703-2.2080078-2.0014648-4.1318359-2.0014648c-1.9257812,0-2.7578125,0.7543945-4.1386719,2.0039062
							c-1.625,1.4702148-3.8466797,3.4829102-7.9794922,3.4829102c-4.1337891,0-6.3603516-2.015625-7.9804688-3.4853516
							c-1.3798828-1.2470703-2.2109375-2.0014648-4.1357422-2.0014648c-1.5820312,0-2.8623047-1.2802734-2.8623047-2.8618164
							c0-1.5820312,1.2802734-2.8623047,2.8623047-2.8623047c4.1308594,0,6.3554688,2.0126953,7.9765625,3.4824219
							c1.3798828,1.2495117,2.2138672,2.0039062,4.1396484,2.0039062c1.9248047,0,2.7578125-0.7543945,4.1386719-2.0039062
							c1.6240234-1.4697266,3.8457031-3.4824219,7.9794922-3.4824219c4.1318359,0,6.3535156,2.0151367,7.9765625,3.4853516
							c1.375,1.246582,2.2070312,2.0009766,4.1308594,2.0009766c1.5820312,0,2.8623047,1.2802734,2.8623047,2.8623047
							S374.4433594,183.3037109,372.8613281,183.3037109z"/>
					</g>
					<g>
						<path fill="#F05458" d="M336.1113281,158.2714844c-4.1337891,0-6.3564453-2.0146484-7.9794922-3.4848633
							c-1.3789062-1.2460938-2.2080078-2.0014648-4.1318359-2.0014648c-1.9257812,0-2.7578125,0.7553711-4.1386719,2.0043945
							c-1.6240234,1.4697266-3.8457031,3.4819336-7.9804688,3.4819336c-4.1308594,0-6.3544922-2.012207-7.9755859-3.4819336
							c-1.3808594-1.2490234-2.2148438-2.0043945-4.1396484-2.0043945c-1.5820312,0-2.8632812-1.2797852-2.8632812-2.8618164
							c0-1.581543,1.28125-2.8623047,2.8632812-2.8623047c4.1328125,0,6.3583984,2.015625,7.9794922,3.4853516
							c1.3808594,1.2470703,2.2109375,2.0014648,4.1357422,2.0014648c1.9267578,0,2.7587891-0.7543945,4.1396484-2.0039062
							c1.6240234-1.4707031,3.8457031-3.4829102,7.9794922-3.4829102c4.1318359,0,6.3525391,2.012207,7.9755859,3.4829102
							c1.3798828,1.2495117,2.2089844,2.0039062,4.1357422,2.0039062c1.5820312,0,2.8623047,1.2797852,2.8623047,2.8618164
							S337.6933594,158.2714844,336.1113281,158.2714844z"/>
					</g>
					<g>
						<path fill="#F05458" d="M57.4150391,180.9272461c-4.1308594,0-6.3530273-2.0141602-7.9770508-3.4853516
							c-1.375-1.246582-2.2080078-2.0004883-4.1313477-2.0004883c-1.925293,0-2.7583008,0.7539062-4.1386719,2.0039062
							c-1.6245117,1.4702148-3.8461914,3.4819336-7.9799805,3.4819336c-4.1308594,0-6.3549805-2.0117188-7.9765625-3.4819336
							c-1.3808594-1.25-2.2138672-2.0039062-4.1396484-2.0039062c-1.5820312,0-2.8618164-1.2802734-2.8618164-2.8618164
							c0-1.5825195,1.2797852-2.8623047,2.8618164-2.8623047c4.1337891,0,6.3583984,2.0151367,7.9794922,3.4853516
							c1.3808594,1.246582,2.2109375,2.0009766,4.1367188,2.0009766s2.7587891-0.7543945,4.1391602-2.0043945
							c1.6245117-1.4697266,3.8457031-3.4819336,7.9794922-3.4819336c4.1313477,0,6.3535156,2.0151367,7.9775391,3.4853516
							c1.3745117,1.246582,2.2075195,2.0009766,4.1308594,2.0009766c1.581543,0,2.8613281,1.2802734,2.8613281,2.8618164
							C60.2763672,179.6479492,58.996582,180.9272461,57.4150391,180.9272461z"/>
					</g>
					<g>
						<path fill="#57D2FF" d="M61.6748047,133.3432617c-4.3237305,0-6.5883789-1.8891602-8.4052734-3.4067383
							c-1.4975586-1.2490234-2.4873047-2.0766602-4.734375-2.0766602c-2.25,0-3.2392578,0.8276367-4.7402344,2.0766602
							c-1.8193359,1.5175781-4.0839844,3.4067383-8.4042969,3.4067383c-4.3237305,0-6.5874023-1.8891602-8.4072266-3.4067383
							c-1.5009766-1.2490234-2.4902344-2.0766602-4.7407227-2.0766602c-1.581543,0-2.8613281-1.2802734-2.8613281-2.8618164
							c0-1.5820312,1.2797852-2.8623047,2.8613281-2.8623047c4.3242188,0,6.5883789,1.8896484,8.4077148,3.4072266
							c1.5009766,1.2495117,2.4907227,2.0761719,4.7402344,2.0761719c2.2470703,0,3.2387695-0.8266602,4.7373047-2.0761719
							c1.8193359-1.5175781,4.0839844-3.4072266,8.4072266-3.4072266c4.3212891,0,6.5849609,1.8896484,8.4013672,3.4072266
							c1.4985352,1.2495117,2.4907227,2.0761719,4.7382812,2.0761719c1.5820312,0,2.8613281,1.2807617,2.8613281,2.862793
							S63.2568359,133.3432617,61.6748047,133.3432617z"/>
					</g>
					<g>
						<path fill="#57D2FF" d="M166.5019531,129.7241211c-4.3208008,0-6.5844727-1.8891602-8.4013672-3.4091797
							c-1.4980469-1.25-2.487793-2.0776367-4.734375-2.0776367c-2.2504883,0-3.2402344,0.8276367-4.7407227,2.0795898
							c-1.8198242,1.5180664-4.0834961,3.4072266-8.4077148,3.4072266c-4.3237305,0-6.5869141-1.8891602-8.4072266-3.4072266
							c-1.5-1.2519531-2.4902344-2.0795898-4.7402344-2.0795898c-1.581543,0-2.8613281-1.2797852-2.8613281-2.8618164
							c0-1.581543,1.2797852-2.8618164,2.8613281-2.8618164c4.3242188,0,6.5883789,1.8896484,8.4077148,3.4067383
							C136.9790039,123.1728516,137.9682617,124,140.2177734,124c2.2504883,0,3.2397461-0.8271484,4.7407227-2.0795898
							c1.8193359-1.5170898,4.0834961-3.4067383,8.4077148-3.4067383c4.3198242,0,6.5849609,1.8896484,8.4013672,3.4101562
							C163.2651367,123.1728516,164.2543945,124,166.5019531,124c1.5820312,0,2.8623047,1.2797852,2.8623047,2.8623047
							C169.3642578,128.4443359,168.0839844,129.7241211,166.5019531,129.7241211z"/>
					</g>
					<g>
						<path fill="#57D2FF" d="M321.2617188,100.4023438c-4.1308594,0-6.3535156-2.0151367-7.9765625-3.4858398
							c-1.3759766-1.246582-2.2089844-2.0004883-4.1308594-2.0004883c-1.9267578,0-2.7597656,0.7539062-4.140625,2.003418
							c-1.6240234,1.4702148-3.8466797,3.4829102-7.9794922,3.4829102s-6.3583984-2.0151367-7.9804688-3.4858398
							c-1.3798828-1.246582-2.2099609-2.0004883-4.1357422-2.0004883c-1.5820312,0-2.8623047-1.2802734-2.8623047-2.8623047
							s1.2802734-2.8623047,2.8623047-2.8623047c4.1318359,0,6.3564453,2.0126953,7.9775391,3.4824219
							c1.3808594,1.2495117,2.2138672,2.0039062,4.1386719,2.0039062c1.9267578,0,2.7597656-0.7543945,4.140625-2.0039062
							c1.6230469-1.4697266,3.8457031-3.4824219,7.9794922-3.4824219c4.1308594,0,6.3525391,2.0151367,7.9765625,3.4858398
							c1.3740234,1.2460938,2.2080078,2.0004883,4.1308594,2.0004883c1.5820312,0,2.8603516,1.2807617,2.8603516,2.862793
							C324.1220703,99.1220703,322.84375,100.4023438,321.2617188,100.4023438z"/>
					</g>
					<g>
						<path fill="#57D2FF" d="M108.0874023,96.3608398c-4.3232422,0-6.5883789-1.8891602-8.4047852-3.409668
							c-1.4975586-1.2495117-2.4868164-2.0776367-4.734375-2.0776367c-2.25,0-3.2392578,0.828125-4.7402344,2.0800781
							c-1.8193359,1.5180664-4.0805664,3.4072266-8.4047852,3.4072266c-4.3232422,0-6.5874023-1.8891602-8.4067383-3.4072266
							c-1.5004883-1.2519531-2.4907227-2.0800781-4.7407227-2.0800781c-1.581543,0-2.8618164-1.2792969-2.8618164-2.8613281
							c0-1.581543,1.2802734-2.8618164,2.8618164-2.8618164c4.3242188,0,6.5874023,1.8891602,8.4072266,3.4067383
							c1.5004883,1.2524414,2.4907227,2.0795898,4.7402344,2.0795898c2.2475586,0,3.2368164-0.8271484,4.737793-2.0766602
							c1.8193359-1.5205078,4.0834961-3.409668,8.4072266-3.409668c4.3203125,0,6.5844727,1.8891602,8.4013672,3.4067383
							c1.5014648,1.2524414,2.4907227,2.0795898,4.737793,2.0795898c1.5820312,0,2.8613281,1.2802734,2.8613281,2.8613281
							C110.9487305,95.0805664,109.6694336,96.3608398,108.0874023,96.3608398z"/>
					</g>
					<g>
						<path fill="#57D2FF" d="M212.9140625,92.7387695c-4.3193359,0-6.5839844-1.8896484-8.4013672-3.4101562
							c-1.4970703-1.2495117-2.4873047-2.0766602-4.7348633-2.0766602c-2.2485352,0-3.2387695,0.8271484-4.7392578,2.0791016
							c-1.8203125,1.5180664-4.0834961,3.4077148-8.4077148,3.4077148c-4.3237305,0-6.5869141-1.8896484-8.4067383-3.4077148
							c-1.5004883-1.2519531-2.4907227-2.0791016-4.7412109-2.0791016c-1.5810547,0-2.8608398-1.2802734-2.8608398-2.8618164
							c0-1.5820312,1.2797852-2.8618164,2.8608398-2.8618164c4.3242188,0,6.5883789,1.8891602,8.4077148,3.4067383
							c1.5014648,1.2514648,2.4907227,2.0791016,4.7402344,2.0791016c2.25,0,3.2392578-0.8276367,4.7402344-2.0791016
							c1.8198242-1.5175781,4.0830078-3.4067383,8.4067383-3.4067383c4.3217773,0,6.5864258,1.8891602,8.4018555,3.4091797
							c1.4980469,1.2490234,2.4873047,2.0766602,4.734375,2.0766602c1.5820312,0,2.8632812,1.2802734,2.8632812,2.8623047
							S214.4960938,92.7387695,212.9140625,92.7387695z"/>
					</g>
					<g>
						<path fill="#F05458" d="M296.5068359,191.8979492c-4.3212891,0-6.5859375-1.8896484-8.4023438-3.4067383
							c-1.4970703-1.2495117-2.4863281-2.0766602-4.7333984-2.0766602c-2.2509766,0-3.2402344,0.8271484-4.7412109,2.0766602
							c-1.8193359,1.5170898-4.0839844,3.4067383-8.4072266,3.4067383c-4.3242188,0-6.5878906-1.8896484-8.4072266-3.4067383
							c-1.4990234-1.2495117-2.4912109-2.0766602-4.7373047-2.0766602c-1.5820312,0-2.8613281-1.2807617-2.8613281-2.862793
							s1.2792969-2.8613281,2.8613281-2.8613281c4.3212891,0,6.5849609,1.8896484,8.4042969,3.40625
							c1.5009766,1.2495117,2.4902344,2.0776367,4.7402344,2.0776367c2.2490234,0,3.2392578-0.828125,4.7402344-2.0776367
							c1.8203125-1.5166016,4.0820312-3.40625,8.4082031-3.40625c4.3203125,0,6.5839844,1.8896484,8.4003906,3.40625
							c1.4980469,1.2495117,2.4882812,2.0776367,4.7353516,2.0776367c1.5820312,0,2.8623047,1.2797852,2.8623047,2.8613281
							C299.3691406,190.6176758,298.0888672,191.8979492,296.5068359,191.8979492z"/>
					</g>
					<g>
						<path fill="#F05458" d="M113.7783203,155.5297852c-3.7539062,0-5.6850586-2.1293945-7.09375-3.6835938
							c-1.2358398-1.3608398-1.7304688-1.8027344-2.8535156-1.8027344c-1.1298828,0-1.6245117,0.4418945-2.862793,1.8056641
							c-1.4082031,1.5537109-3.3427734,3.6806641-7.0991211,3.6806641s-5.6904297-2.1269531-7.0986328-3.6806641
							c-1.2382812-1.3637695-1.7329102-1.8056641-2.8623047-1.8056641c-1.5820312,0-2.8618164-1.2802734-2.8618164-2.8623047
							c0-1.5810547,1.2797852-2.8623047,2.8618164-2.8623047c3.7563477,0,5.690918,2.1279297,7.0986328,3.6816406
							c1.2382812,1.3642578,1.7338867,1.8056641,2.8623047,1.8056641c1.1289062,0,1.6240234-0.4414062,2.862793-1.8056641
							c1.4077148-1.5537109,3.3422852-3.6816406,7.0991211-3.6816406c3.7563477,0,5.6870117,2.1303711,7.0961914,3.6835938
							c1.2353516,1.3623047,1.7270508,1.8037109,2.8510742,1.8037109c1.581543,0,2.8618164,1.2797852,2.8618164,2.8618164
							S115.3598633,155.5297852,113.7783203,155.5297852z"/>
					</g>
				</g>
			</g>
		</g>
		<g>
			<path fill="#57D2FF" d="M65.4672852,69.3647461c-4.1337891,0-6.3554688-2.0161133-7.9804688-3.4863281
				c-1.3774414-1.2460938-2.2075195-2.0004883-4.1308594-2.0004883c-1.925293,0-2.7578125,0.7543945-4.1391602,2.0039062
				c-1.6235352,1.4707031-3.8452148,3.4829102-7.9799805,3.4829102c-4.1303711,0-6.3554688-2.012207-7.9760742-3.4829102
				c-1.3808594-1.2495117-2.2133789-2.0039062-4.1391602-2.0039062c-1.5820312,0-2.8618164-1.2802734-2.8618164-2.8623047
				s1.2797852-2.8613281,2.8618164-2.8613281c4.1333008,0,6.3579102,2.0141602,7.9794922,3.484375
				c1.3803711,1.246582,2.2104492,2.0014648,4.1357422,2.0014648c1.9262695,0,2.7592773-0.7548828,4.1401367-2.0039062
				c1.6235352-1.4702148,3.8457031-3.4819336,7.9790039-3.4819336c4.1308594,0,6.3535156,2.0117188,7.9741211,3.4819336
				c1.3813477,1.2490234,2.2114258,2.0039062,4.137207,2.0039062c1.5810547,0,2.8618164,1.2802734,2.8618164,2.8623047
				C68.3291016,68.0839844,67.0483398,69.3647461,65.4672852,69.3647461z"/>
		</g>
		<g>
			<path fill="#57D2FF" d="M145.2431641,60.8032227c-4.1308594,0-6.3525391-2.0151367-7.9765625-3.4848633
				c-1.3745117-1.2470703-2.2080078-2.0009766-4.1308594-2.0009766c-1.9262695,0-2.7587891,0.7539062-4.1396484,2.003418
				c-1.6235352,1.4702148-3.8452148,3.4824219-7.9794922,3.4824219c-4.1337891,0-6.3554688-2.012207-7.9790039-3.4824219
				c-1.3813477-1.2495117-2.2138672-2.003418-4.1401367-2.003418c-1.581543,0-2.8618164-1.2807617-2.8618164-2.862793
				s1.2802734-2.8618164,2.8618164-2.8618164c4.1337891,0,6.355957,2.0126953,7.9799805,3.4829102
				c1.3803711,1.2490234,2.2133789,2.003418,4.1391602,2.003418s2.7587891-0.7543945,4.1396484-2.003418
				c1.6230469-1.4702148,3.8457031-3.4829102,7.9794922-3.4829102c4.1308594,0,6.3530273,2.0146484,7.9765625,3.4853516
				c1.375,1.246582,2.2084961,2.0009766,4.1308594,2.0009766c1.5820312,0,2.8623047,1.2807617,2.8623047,2.862793
				C148.1054688,59.5234375,146.8251953,60.8032227,145.2431641,60.8032227z"/>
		</g>
		<g>
			<path fill="#57D2FF" d="M257.6425781,80.0551758c-4.1328125,0-6.3554688-2.0151367-7.9794922-3.4858398
				c-1.3769531-1.246582-2.2080078-2.0009766-4.1308594-2.0009766c-1.9257812,0-2.7587891,0.7543945-4.1396484,2.0039062
				c-1.6201172,1.4707031-3.8466797,3.4829102-7.9775391,3.4829102c-4.1328125,0-6.3544922-2.012207-7.9775391-3.4829102
				c-1.3828125-1.2495117-2.2148438-2.0039062-4.140625-2.0039062c-1.5820312,0-2.8613281-1.2797852-2.8613281-2.8618164
				c0-1.5825195,1.2792969-2.8618164,2.8613281-2.8618164c4.1337891,0,6.3554688,2.012207,7.9794922,3.4819336
				c1.3808594,1.25,2.2148438,2.0043945,4.1386719,2.0043945c1.9267578,0,2.7578125-0.7543945,4.1376953-2.0014648
				c1.6210938-1.4702148,3.8457031-3.4848633,7.9794922-3.4848633c4.1308594,0,6.3535156,2.012207,7.9736328,3.4819336
				c1.3818359,1.25,2.2109375,2.0043945,4.1367188,2.0043945c1.5820312,0,2.8623047,1.2797852,2.8623047,2.8623047
				C260.5048828,78.7749023,259.2246094,80.0551758,257.6425781,80.0551758z"/>
		</g>
		<g>
			<path fill="#57D2FF" d="M352.6826172,60.8032227c-4.1318359,0-6.3535156-2.012207-7.9746094-3.4824219
				c-1.3798828-1.2495117-2.2099609-2.003418-4.1357422-2.003418c-1.9267578,0-2.7558594,0.7539062-4.1367188,2.0009766
				c-1.6220703,1.4697266-3.8447266,3.4848633-7.9804688,3.4848633c-4.1328125,0-6.3544922-2.012207-7.9785156-3.4824219
				c-1.3818359-1.2495117-2.2148438-2.003418-4.1396484-2.003418c-1.5820312,0-2.8623047-1.2807617-2.8623047-2.862793
				s1.2802734-2.8618164,2.8623047-2.8618164c4.1328125,0,6.3544922,2.0126953,7.9794922,3.4829102
				c1.3798828,1.2490234,2.2138672,2.003418,4.1386719,2.003418c1.9267578,0,2.7597656-0.7543945,4.1396484-2.003418
				c1.6210938-1.4702148,3.8457031-3.4829102,7.9775391-3.4829102c4.1328125,0,6.3544922,2.0146484,7.9785156,3.4853516
				c1.3789062,1.246582,2.2080078,2.0009766,4.1318359,2.0009766c1.5820312,0,2.8623047,1.2807617,2.8623047,2.862793
				C355.5449219,59.5234375,354.2646484,60.8032227,352.6826172,60.8032227z"/>
		</g>
	</g>
</g>
</svg>
