<?xml version="1.0" encoding="utf-8"?>
<!-- Generator: Adobe Illustrator 15.0.0, SVG Export Plug-In . SVG Version: 6.00 Build 0)  -->
<!DOCTYPE svg PUBLIC "-//W3C//DTD SVG 1.1//EN" "http://www.w3.org/Graphics/SVG/1.1/DTD/svg11.dtd">
<svg version="1.1" id="triangle" xmlns="http://www.w3.org/2000/svg" xmlns:xlink="http://www.w3.org/1999/xlink" x="0px" y="0px"
	 width="138px" height="138px" viewBox="0 0 138 138" enable-background="new 0 0 138 138" xml:space="preserve">
<polygon fill="#F15F22" points="138,47.964 138,47.299 47.3,138 47.964,138 "/>
<polygon fill="#F15F22" points="138,53.539 138,52.872 52.873,138 53.539,138 "/>
<polygon fill="#F15F22" points="138,42.39 138,41.724 41.725,138 42.39,138 "/>
<polygon fill="#F15F22" points="138,70.262 138,69.596 69.596,138 70.262,138 "/>
<polygon fill="#F15F22" points="138,36.817 138,36.15 36.15,138 36.817,138 "/>
<polygon fill="#F15F22" points="138,59.113 138,58.446 58.447,138 59.113,138 "/>
<polygon fill="#F15F22" points="138,64.685 138,64.021 64.021,138 64.686,138 "/>
<polygon fill="#F15F22" points="138,8.946 138,8.281 8.281,138 8.947,138 "/>
<polygon fill="#F15F22" points="2.707,138 3.373,138 138,3.372 138,2.707 "/>
<polygon fill="#F15F22" points="138,31.243 138,30.576 30.577,138 31.243,138 "/>
<polygon fill="#F15F22" points="138,20.095 138,19.429 19.429,138 20.095,138 "/>
<polygon fill="#F15F22" points="138,25.669 138,25.001 25.002,138 25.669,138 "/>
<polygon fill="#F15F22" points="138,14.521 138,13.855 13.855,138 14.521,138 "/>
<polygon fill="#F15F22" points="138,120.427 138,119.762 119.762,138 120.427,138 "/>
<polygon fill="#F15F22" points="138,126.001 138,125.336 125.336,138 126.001,138 "/>
<polygon fill="#F15F22" points="138,114.854 138,114.188 114.188,138 114.854,138 "/>
<polygon fill="#F15F22" points="138,137.148 138,136.482 136.482,138 137.148,138 "/>
<polygon fill="#F15F22" points="138,131.575 138,130.909 130.909,138 131.575,138 "/>
<polygon fill="#F15F22" points="138,109.277 138,108.614 108.613,138 109.277,138 "/>
<polygon fill="#F15F22" points="138,86.98 138,86.316 86.316,138 86.982,138 "/>
<polygon fill="#F15F22" points="138,81.408 138,80.743 80.744,138 81.408,138 "/>
<polygon fill="#F15F22" points="138,75.836 138,75.169 75.169,138 75.836,138 "/>
<polygon fill="#F15F22" points="138,92.557 138,91.893 91.893,138 92.557,138 "/>
<polygon fill="#F15F22" points="138,103.704 138,103.04 103.04,138 103.705,138 "/>
<polygon fill="#F15F22" points="138,98.13 138,97.466 97.466,138 98.131,138 "/>
</svg>
