<?xml version="1.0" encoding="utf-8"?>
<!-- Generator: Adobe Illustrator 15.0.0, SVG Export Plug-In . SVG Version: 6.00 Build 0)  -->
<!DOCTYPE svg PUBLIC "-//W3C//DTD SVG 1.1//EN" "http://www.w3.org/Graphics/SVG/1.1/DTD/svg11.dtd">
<svg version="1.1" id="Layer_1" xmlns="http://www.w3.org/2000/svg" xmlns:xlink="http://www.w3.org/1999/xlink" x="0px" y="0px"
	 width="288px" height="288px" viewBox="0 0 288 288" enable-background="new 0 0 288 288" xml:space="preserve">
<g>
	<path id="Dark_Circle" fill="#FFdD35" d="M268.605,143.999c0,68.821-55.788,124.606-124.606,124.606
		c-68.816,0-124.604-55.785-124.604-124.606c0-68.819,55.788-124.604,124.604-124.604C212.817,19.395,268.605,75.18,268.605,143.999
		z"/>
	<path id="Light_Circle" fill="#FFdD35" d="M249.817,145.976c0,58.766-47.643,106.402-106.405,106.402
		c-58.762,0-106.401-47.637-106.401-106.402S84.65,39.573,143.412,39.573C202.175,39.573,249.817,87.21,249.817,145.976z"/>
	<g id="Black_Graphics">
		<path fill="#222" d="M120.457,167.352v-12.319H196.1c0.753-3.561,1.162-7.248,1.162-11.033c0-3.786-0.409-7.475-1.162-11.038
			h-75.643v-12.318h71.354c-8.659-17.691-26.782-29.902-47.807-29.902c-29.415,0-53.258,23.845-53.258,53.258
			c0,29.415,23.843,53.259,53.258,53.259c21.024,0,39.15-12.214,47.812-29.906H120.457z"/>
		<path fill="#222" d="M61.265,140.45H19.487c-0.033,1.184-0.09,2.357-0.09,3.549c0,1.617,0.061,3.222,0.122,4.823h41.745V140.45
			z"/>
		<path fill="none" stroke="#222" stroke-width="17.3903" stroke-miterlimit="10" d="M221.213,143.997
			c0,42.643-34.571,77.215-77.211,77.215c-42.643,0-77.215-34.572-77.215-77.215c0-42.638,34.572-77.209,77.215-77.209
			C186.642,66.788,221.213,101.359,221.213,143.997z"/>
	</g>
	<g id="Red_Text">
		<g>
			<path fill="#9C3b1F" d="M56.583,81.71c5.626,3.36,6.84,8.982,3.628,14.354c-3.228,5.399-8.969,6.314-13.86,3.393
				c-5.12-3.058-6.838-8.87-3.626-14.242C46.082,79.599,51.843,78.879,56.583,81.71z M48.886,95.043
				c3.371,2.013,6.734,1.739,8.388-1.029c1.671-2.794,0.144-5.878-3.176-7.861c-3.092-1.847-6.652-1.875-8.355,0.975
				C44.056,89.949,45.566,93.061,48.886,95.043z"/>
			<path fill="#9C3b1F" d="M54.849,69.25c0.878-1.222,2.22-2.829,4.289-4.918c2.091-2.111,3.959-3.242,5.715-3.505
				c1.692-0.281,3.489,0.253,4.873,1.625s2.111,3.028,1.975,4.718c-0.15,2.166-1.381,4.373-3.384,6.395
				c-0.445,0.449-0.866,0.833-1.241,1.085l5.074,5.029l-3.359,3.392L54.849,69.25z M64.624,72.217
				c0.352-0.229,0.707-0.546,1.218-1.062c1.802-1.819,2.055-3.794,0.629-5.208c-1.3-1.289-3.032-1.092-4.745,0.638
				c-0.667,0.674-1.093,1.187-1.274,1.497L64.624,72.217z"/>
			<path fill="#9C3b1F" d="M89.642,54.994l-6.528,4.34l2.615,3.933l7.291-4.848l2.043,3.072L83.771,69L72.756,52.433l10.923-7.263
				l2.042,3.073l-6.922,4.603l2.288,3.442l6.528-4.341L89.642,54.994z"/>
			<path fill="#9C3b1F" d="M92.503,40.754c1.345-0.804,3.385-1.828,5.785-2.808c2.927-1.195,5.143-1.621,6.971-1.156
				c1.557,0.385,2.736,1.434,3.428,3.128c0.948,2.323-0.179,4.664-1.642,5.931l0.033,0.082c1.588-0.042,2.839,0.85,4.028,2.341
				c1.474,1.854,3.041,4.019,3.711,4.574l-4.565,1.864c-0.516-0.427-1.616-1.7-3.098-3.741c-1.504-2.096-2.598-2.351-4.453-1.625
				l-1.317,0.538l2.956,7.242l-4.419,1.804L92.503,40.754z M100.157,46.875l1.756-0.717c2.225-0.908,3.118-2.484,2.459-4.097
				c-0.681-1.667-2.267-2.04-4.315-1.203c-1.083,0.442-1.675,0.748-1.963,0.961L100.157,46.875z"/>
			<path fill="#9C3b1F" d="M123.72,45.625l-0.618,5.292l-4.89,0.853l2.97-20.716l6.229-1.086l9.955,18.461l-5.139,0.896
				l-2.496-4.749L123.72,45.625z M128.468,41.38l-2.032-3.931c-0.577-1.098-1.204-2.487-1.718-3.596l-0.062,0.011
				c-0.109,1.217-0.162,2.755-0.307,3.949l-0.521,4.376L128.468,41.38z"/>
			<path fill="#9C3b1F" d="M144.251,32.363l-5.751-0.086l0.057-3.779l16.369,0.245l-0.057,3.779l-5.814-0.087l-0.242,16.121
				l-4.803-0.072L144.251,32.363z"/>
			<path fill="#9C3b1F" d="M167.432,30.446l-3.054,19.664l-4.748-0.737l3.055-19.664L167.432,30.446z"/>
			<path fill="#9C3b1F" d="M192.546,47.976c-2.185,6.179-7.457,8.48-13.357,6.396c-5.931-2.095-7.961-7.54-6.062-12.912
				c1.988-5.622,7.349-8.456,13.249-6.372C192.544,37.268,194.387,42.771,192.546,47.976z M177.954,43.071
				c-1.309,3.702-0.376,6.943,2.663,8.017c3.069,1.084,5.792-1.021,7.082-4.667c1.2-3.396,0.525-6.89-2.604-7.996
				C181.996,37.33,179.244,39.425,177.954,43.071z"/>
			<path fill="#9C3b1F" d="M193.638,60.01l11.221-16.435l4.647,3.172l-0.457,8.518c-0.138,2.444-0.518,5.188-0.974,7.593
				l0.052,0.036c1.247-2.331,2.684-4.603,4.382-7.09l3.263-4.779l3.655,2.495l-11.221,16.435l-4.177-2.852l0.568-8.906
				c0.154-2.468,0.428-5.392,0.907-7.888l-0.104-0.071c-1.367,2.283-2.896,4.636-4.728,7.318l-3.38,4.95L193.638,60.01z"/>
			<path fill="#9C3b1F" d="M219.864,74.488l-4.85,2.204l-3.256-3.747l19.267-8.159l4.147,4.773l-10.661,18.062l-3.421-3.938
				l2.775-4.591L219.864,74.488z M225.95,76.361l2.314-3.771c0.643-1.061,1.507-2.315,2.191-3.329l-0.042-0.048
				c-1.099,0.536-2.442,1.285-3.539,1.777l-4.015,1.814L225.95,76.361z"/>
			<path fill="#9C3b1F" d="M244.533,82.589l2.253,4.244l-14.238,7.557l3.971,7.483l-3.338,1.771l-6.223-11.728L244.533,82.589z"/>
		</g>
		<g>
			<path fill="#9C3b1F" d="M92.727,234.709l-6.286-4.688l-2.825,3.786l7.021,5.237l-2.207,2.958l-10.873-8.11l11.899-15.951
				l10.518,7.846l-2.207,2.959l-6.666-4.973l-2.472,3.313l6.286,4.688L92.727,234.709z"/>
			<path fill="#9C3b1F" d="M96.888,246.962l7.436-18.46l5.22,2.102l1.381,8.419c0.39,2.417,0.606,5.179,0.677,7.626l0.059,0.023
				c0.718-2.544,1.634-5.071,2.759-7.865l2.162-5.368l4.106,1.653l-7.436,18.461l-4.692-1.891l-1.355-8.821
				c-0.378-2.444-0.739-5.359-0.806-7.9l-0.117-0.048c-0.846,2.524-1.835,5.15-3.049,8.163l-2.239,5.56L96.888,246.962z"/>
			<path fill="#9C3b1F" d="M137.221,249.282l-7.769-1.045l-0.63,4.683l8.678,1.167l-0.492,3.658l-13.439-1.807l2.654-19.726
				l13,1.748l-0.492,3.658l-8.239-1.107l-0.551,4.097l7.769,1.045L137.221,249.282z"/>
			<path fill="#9C3b1F" d="M144.579,238.398c1.521-0.374,3.771-0.755,6.353-0.987c3.147-0.284,5.392-0.041,7.003,0.939
				c1.376,0.825,2.195,2.174,2.36,3.997c0.226,2.499-1.538,4.407-3.308,5.189l0.008,0.088c1.53,0.425,2.465,1.646,3.165,3.42
				c0.865,2.204,1.729,4.735,2.207,5.463l-4.911,0.442c-0.368-0.56-1.046-2.099-1.864-4.485c-0.824-2.445-1.796-3.01-3.781-2.86
				l-1.417,0.127l0.704,7.792l-4.754,0.429L144.579,238.398z M150.102,246.497l1.889-0.17c2.393-0.216,3.708-1.461,3.552-3.195
				c-0.162-1.794-1.569-2.615-3.772-2.417c-1.165,0.105-1.82,0.224-2.159,0.343L150.102,246.497z"/>
			<path fill="#9C3b1F" d="M187.612,247.677c-1.238,0.947-3.665,2.511-6.312,3.463c-3.658,1.315-6.615,1.406-9.049,0.43
				c-2.403-0.986-4.294-3.068-5.283-5.818c-2.209-6.235,1.359-11.535,7.932-13.899c2.587-0.931,4.749-1.175,5.881-1.111l0.277,3.761
				c-1.27-0.077-2.729,0.071-4.929,0.862c-3.777,1.358-5.952,4.369-4.483,8.453c1.399,3.891,4.826,5.2,8.544,3.863
				c1.011-0.364,1.804-0.774,2.11-1.042l-1.419-3.945l-3.093,1.112l-1.189-3.307l7.465-2.685L187.612,247.677z"/>
			<path fill="#9C3b1F" d="M201.103,240.724l-4.688-6.666l-12.265-5.74l4.523-3.183l4.509,2.676
				c1.375,0.802,2.374,1.398,3.535,2.171l0.052-0.037c-0.326-1.287-0.574-2.52-0.873-4.043l-0.993-5.15l4.42-3.109l0.937,13.53
				l4.771,6.787L201.103,240.724z"/>
		</g>
		<g>
			<path fill="#9C3b1F" d="M115.299,90.283l0.581,1.017l-2.639,1.507l-0.581-1.017L115.299,90.283z"/>
			<path fill="#9C3b1F" d="M121.874,87.591l-2.638,1.143l0.737,1.702l2.946-1.277l0.576,1.33l-4.563,1.977l-3.106-7.168l4.414-1.912
				l0.576,1.329l-2.797,1.212l0.645,1.489l2.638-1.143L121.874,87.591z"/>
			<path fill="#9C3b1F" d="M123.372,82.292L127.956,81l0.393,1.395l-2.889,0.814l0.484,1.718l2.699-0.761l0.39,1.383l-2.699,0.761
				l0.852,3.022l-1.695,0.478L123.372,82.292z"/>
			<path fill="#9C3b1F" d="M131.163,80.329l4.716-0.677l0.206,1.434l-2.972,0.427l0.253,1.767l2.777-0.398l0.204,1.423l-2.776,0.398
				l0.446,3.11l-1.744,0.25L131.163,80.329z"/>
			<path fill="#9C3b1F" d="M143.85,83.855l-2.876,0.045l0.029,1.855l3.213-0.051l0.022,1.45l-4.975,0.079l-0.124-7.816l4.812-0.076
				l0.023,1.449l-3.05,0.048l0.025,1.624l2.876-0.045L143.85,83.855z"/>
			<path fill="#9C3b1F" d="M152.015,87.798c-0.33,0.11-1.09,0.2-2.021,0.082c-2.681-0.341-3.848-2.197-3.566-4.406
				c0.337-2.646,2.409-3.867,4.757-3.568c0.909,0.116,1.577,0.376,1.866,0.588l-0.544,1.334c-0.326-0.194-0.804-0.395-1.437-0.475
				c-1.381-0.176-2.569,0.526-2.789,2.252c-0.197,1.553,0.599,2.648,2.151,2.846c0.541,0.069,1.13,0.039,1.505-0.066L152.015,87.798
				z"/>
			<path fill="#9C3b1F" d="M157.299,82.791l-2.033-0.564l0.396-1.43l5.786,1.604l-0.396,1.43l-2.055-0.57l-1.691,6.099l-1.698-0.471
				L157.299,82.791z"/>
			<path fill="#9C3b1F" d="M161.753,88.899c0.33,0.406,0.916,0.922,1.608,1.218c0.745,0.319,1.271,0.179,1.473-0.289
				c0.191-0.448-0.04-0.849-0.774-1.517c-1.011-0.937-1.516-1.935-1.069-2.979c0.525-1.225,1.955-1.709,3.638-0.988
				c0.82,0.352,1.338,0.762,1.677,1.147l-0.919,1.145c-0.217-0.257-0.652-0.683-1.345-0.98c-0.703-0.301-1.186-0.117-1.34,0.246
				c-0.196,0.458,0.11,0.829,0.897,1.582c1.066,1.011,1.369,1.923,0.937,2.935c-0.516,1.204-1.87,1.833-3.84,0.99
				c-0.82-0.352-1.534-0.922-1.843-1.319L161.753,88.899z"/>
			<path fill="#9C3b1F" d="M171.711,91.789l-0.581,1.018l-2.639-1.507l0.581-1.017L171.711,91.789z"/>
		</g>
		<g>
			<path fill="#9C3b1F" d="M87.869,170.921l1.09-0.431l1.195,3.026l-1.09,0.431L87.869,170.921z"/>
			<path fill="#9C3b1F" d="M83.053,169.602c-0.249-0.535-0.541-1.304-0.857-2.413c-0.32-1.122-0.347-1.979-0.099-2.631
				c0.229-0.633,0.759-1.146,1.495-1.356c0.736-0.21,1.444-0.142,1.996,0.229c0.712,0.468,1.23,1.313,1.537,2.387
				c0.068,0.239,0.118,0.457,0.132,0.634l2.699-0.771l0.514,1.802L83.053,169.602z M85.952,166.824
				c-0.011-0.165-0.051-0.347-0.129-0.621c-0.276-0.967-0.903-1.433-1.662-1.216c-0.691,0.197-0.958,0.829-0.696,1.748
				c0.102,0.357,0.196,0.602,0.267,0.724L85.952,166.824z"/>
			<path fill="#9C3b1F" d="M83.278,152.584c2.547-0.372,4.313,1.038,4.67,3.471c0.358,2.444-1.162,4.146-3.377,4.471
				c-2.318,0.339-4.284-1.004-4.641-3.437C79.558,154.547,81.133,152.898,83.278,152.584z M84.247,158.553
				c1.526-0.223,2.482-1.141,2.298-2.394c-0.185-1.266-1.416-1.825-2.919-1.605c-1.4,0.205-2.491,1.079-2.302,2.369
				C81.512,158.2,82.744,158.772,84.247,158.553z"/>
			<path fill="#9C3b1F" d="M79.328,149.915l-0.04-1.885l6.332-0.134l-0.07-3.324l1.484-0.031l0.109,5.21L79.328,149.915z"/>
			<path fill="#9C3b1F" d="M79.496,139.957l7.796,0.514l-0.123,1.884l-7.795-0.515L79.496,139.957z"/>
			<path fill="#9C3b1F" d="M88.279,131.702c0.095,0.355,0.151,1.168-0.009,2.162c-0.462,2.854-2.371,4.054-4.568,3.696
				c-2.632-0.429-3.76-2.675-3.355-5.174c0.157-0.968,0.447-1.675,0.672-1.978l1.31,0.616c-0.208,0.343-0.431,0.848-0.54,1.522
				c-0.238,1.47,0.411,2.758,2.127,3.037c1.545,0.251,2.676-0.571,2.944-2.225c0.093-0.576,0.089-1.206,0.002-1.61L88.279,131.702z"
				/>
			<path fill="#9C3b1F" d="M89.574,127.594l-3.07-0.901l-5.175,1.235l0.614-2.083l2.041-0.281c0.619-0.09,1.072-0.151,1.618-0.197
				l0.007-0.024c-0.415-0.316-0.792-0.633-1.256-1.028l-1.563-1.338l0.6-2.035l3.593,3.926l3.125,0.917L89.574,127.594z"/>
			<path fill="#9C3b1F" d="M89.025,118.106l1.089,0.429l-1.191,3.026l-1.09-0.429L89.025,118.106z"/>
		</g>
		<g>
			<path fill="#9C3b1F" d="M193.626,107.536l-0.976,0.647l-1.799-2.71l0.976-0.647L193.626,107.536z"/>
			<path fill="#9C3b1F" d="M197.778,109.247l-1.086-1.98l1.301-0.713l3.091,5.636l-1.301,0.713l-1.098-2.002l-5.549,3.041
				l-0.906-1.654L197.778,109.247z"/>
			<path fill="#9C3b1F" d="M202.24,114.902c0.313,0.53,0.712,1.333,1.092,2.278c0.464,1.152,0.628,2.023,0.441,2.741
				c-0.154,0.611-0.568,1.073-1.235,1.341c-0.914,0.368-1.832-0.079-2.327-0.656l-0.032,0.013c0.014,0.624-0.339,1.114-0.927,1.579
				c-0.731,0.576-1.585,1.188-1.805,1.45l-0.724-1.797c0.169-0.202,0.671-0.632,1.476-1.21c0.826-0.587,0.929-1.017,0.647-1.747
				l-0.209-0.519l-2.851,1.148l-0.7-1.74L202.24,114.902z M199.821,117.899l0.278,0.691c0.353,0.875,0.97,1.229,1.604,0.974
				c0.656-0.264,0.806-0.887,0.48-1.693c-0.171-0.426-0.29-0.659-0.373-0.773L199.821,117.899z"/>
			<path fill="#9C3b1F" d="M200.532,127.07l-2.092-0.076l-0.486-1.888l8.204,0.511l0.62,2.404l-6.919,4.479l-0.512-1.984
				l1.782-1.126L200.532,127.07z M202.342,128.796l1.476-0.919c0.412-0.26,0.937-0.549,1.355-0.786l-0.007-0.024
				c-0.479-0.004-1.084,0.023-1.556,0.004l-1.729-0.066L202.342,128.796z"/>
			<path fill="#9C3b1F" d="M208.162,135.315l-7.724,1.183l-0.285-1.864l7.724-1.183L208.162,135.315z"/>
			<path fill="#9C3b1F" d="M200.833,139.161l7.806-0.38l0.106,2.208l-2.777,1.876c-0.799,0.536-1.748,1.067-2.61,1.495l0.002,0.024
				c1.025-0.161,2.077-0.25,3.259-0.308l2.27-0.11l0.083,1.736l-7.806,0.381l-0.095-1.985l2.925-1.933
				c0.811-0.537,1.791-1.145,2.688-1.586l-0.003-0.05c-1.039,0.113-2.138,0.191-3.412,0.253l-2.351,0.115L200.833,139.161z"/>
			<path fill="#9C3b1F" d="M208.735,151.081l-7.807-0.421l0.103-1.884l7.806,0.422L208.735,151.081z"/>
			<path fill="#9C3b1F" d="M200.78,153.315l7.713,1.224l-0.345,2.184l-3.098,1.27c-0.89,0.361-1.927,0.688-2.856,0.93l-0.004,0.024
				c1.035,0.052,2.083,0.18,3.25,0.365l2.243,0.355l-0.271,1.718l-7.713-1.224l0.31-1.963l3.255-1.295
				c0.901-0.359,1.984-0.754,2.95-1.003l0.008-0.049c-1.04-0.103-2.131-0.25-3.39-0.45l-2.323-0.368L200.78,153.315z"/>
			<path fill="#9C3b1F" d="M197.419,169.485c-0.008-0.612,0.07-1.743,0.392-2.8c0.445-1.46,1.111-2.412,1.989-2.948
				c0.876-0.524,1.975-0.63,3.073-0.294c2.48,0.771,3.312,3.139,2.512,5.763c-0.314,1.032-0.745,1.771-1.031,2.111l-1.248-0.797
				c0.322-0.381,0.618-0.875,0.886-1.753c0.459-1.508,0.022-2.9-1.608-3.398c-1.553-0.474-2.77,0.297-3.222,1.78
				c-0.123,0.403-0.18,0.75-0.168,0.909l1.575,0.48l0.376-1.234l1.32,0.403l-0.908,2.979L197.419,169.485z"/>
			<path fill="#9C3b1F" d="M198.327,175.707l-1.077-0.459l1.275-2.99l1.077,0.459L198.327,175.707z"/>
		</g>
		<g>
			<path fill="#9C3b1F" d="M102.038,189.572l-0.817,0.84l-2.331-2.268l0.817-0.84L102.038,189.572z"/>
			<path fill="#9C3b1F" d="M106.38,189.755l-1.771-1.399l0.92-1.164l5.042,3.983l-0.92,1.164l-1.791-1.415l-3.924,4.965
				l-1.479-1.169L106.38,189.755z"/>
			<path fill="#9C3b1F" d="M114.186,198.588l-2.661-1.548l-0.933,1.604l2.972,1.729l-0.729,1.253l-4.602-2.678l3.929-6.757
				l4.452,2.59l-0.729,1.253l-2.821-1.641l-0.816,1.403l2.66,1.548L114.186,198.588z"/>
			<path fill="#9C3b1F" d="M121.551,205.147c-0.367,0.016-1.173-0.107-2.106-0.48c-2.684-1.073-3.438-3.197-2.612-5.263
				c0.99-2.475,3.426-3.085,5.776-2.145c0.91,0.364,1.537,0.802,1.783,1.088l-0.885,1.144c-0.29-0.278-0.733-0.605-1.367-0.859
				c-1.382-0.553-2.779-0.2-3.425,1.413c-0.581,1.452-0.025,2.735,1.53,3.357c0.542,0.217,1.156,0.35,1.569,0.354L121.551,205.147z"
				/>
			<path fill="#9C3b1F" d="M128.208,199.136l-0.668,2.928l3.037,0.693l0.668-2.928l1.839,0.419l-1.738,7.621l-1.839-0.42
				l0.727-3.188l-3.037-0.693l-0.727,3.188l-1.839-0.42l1.738-7.62L128.208,199.136z"/>
			<path fill="#9C3b1F" d="M134.965,208.404l0.576-7.796l2.202,0.163l1.521,2.985c0.435,0.857,0.846,1.865,1.164,2.772l0.024,0.002
				c-0.035-1.038,0.006-2.094,0.093-3.273l0.167-2.267l1.733,0.128l-0.576,7.796l-1.98-0.146l-1.56-3.139
				c-0.434-0.87-0.916-1.917-1.244-2.86l-0.05-0.004c-0.015,1.046-0.071,2.146-0.165,3.419l-0.174,2.348L134.965,208.404z"/>
			<path fill="#9C3b1F" d="M152.859,204.446c0.173,2.568-1.371,4.216-3.824,4.379c-2.466,0.164-4.046-1.485-4.195-3.718
				c-0.157-2.336,1.336-4.189,3.789-4.353C151.193,200.584,152.714,202.284,152.859,204.446z M146.832,204.94
				c0.104,1.538,0.944,2.563,2.208,2.479c1.276-0.084,1.931-1.267,1.829-2.781c-0.095-1.411-0.883-2.567-2.184-2.48
				C147.397,202.242,146.73,203.426,146.832,204.94z"/>
			<path fill="#9C3b1F" d="M154.704,200.241l1.848-0.378l1.267,6.198l3.26-0.666l0.297,1.453l-5.108,1.044L154.704,200.241z"/>
			<path fill="#9C3b1F" d="M169.775,199.907c0.857,2.426-0.186,4.429-2.503,5.248c-2.329,0.822-4.293-0.339-5.038-2.448
				c-0.779-2.207,0.159-4.394,2.476-5.213C167.133,196.639,169.054,197.864,169.775,199.907z M164.107,202.009
				c0.513,1.453,1.598,2.213,2.792,1.791c1.205-0.426,1.518-1.74,1.012-3.172c-0.472-1.333-1.54-2.233-2.769-1.799
				C163.925,199.259,163.602,200.578,164.107,202.009z"/>
			<path fill="#9C3b1F" d="M180.077,198.494c-0.418,0.447-1.256,1.211-2.219,1.751c-1.33,0.747-2.469,0.974-3.475,0.754
				c-0.995-0.227-1.862-0.91-2.425-1.912c-1.261-2.272-0.224-4.557,2.167-5.899c0.941-0.528,1.763-0.763,2.205-0.812l0.353,1.438
				c-0.497,0.053-1.052,0.205-1.853,0.654c-1.374,0.771-2.021,2.078-1.187,3.565c0.795,1.417,2.207,1.701,3.56,0.942
				c0.367-0.206,0.647-0.417,0.749-0.54L177.147,197l-1.125,0.631l-0.676-1.203l2.716-1.524L180.077,198.494z"/>
			<path fill="#9C3b1F" d="M184.69,195.579l-1.992-2.506l-4.943-1.969l1.701-1.352l1.83,0.946c0.558,0.282,0.964,0.493,1.437,0.77
				l0.02-0.016c-0.157-0.497-0.283-0.975-0.436-1.565l-0.508-1.995l1.662-1.32l0.679,5.282l2.027,2.551L184.69,195.579z"/>
			<path fill="#9C3b1F" d="M189.115,186.769l0.821,0.835l-2.319,2.283l-0.821-0.835L189.115,186.769z"/>
		</g>
	</g>
</g>
</svg>
