<?xml version="1.0" encoding="utf-8"?>
<!-- Generator: Adobe Illustrator 15.0.0, SVG Export Plug-In . SVG Version: 6.00 Build 0)  -->
<!DOCTYPE svg PUBLIC "-//W3C//DTD SVG 1.1//EN" "http://www.w3.org/Graphics/SVG/1.1/DTD/svg11.dtd">
<svg version="1.1" id="triangle" xmlns="http://www.w3.org/2000/svg" xmlns:xlink="http://www.w3.org/1999/xlink" x="0px" y="0px"
	 width="64.434px" height="64.434px" viewBox="0 0 64.434 64.434" enable-background="new 0 0 64.434 64.434" xml:space="preserve">
<polygon fill="#F15F22" points="17.573,0 0,17.573 0,18.24 18.239,0 "/>
<polygon fill="#F15F22" points="11.999,0 0,11.999 0,12.664 12.664,0 "/>
<polygon fill="#F15F22" points="23.148,0 0,23.148 0,23.814 23.814,0 "/>
<polygon fill="#F15F22" points="0.851,0 0,0.851 0,1.518 1.518,0 "/>
<polygon fill="#F15F22" points="6.425,0 0,6.425 0,7.091 7.091,0 "/>
<polygon fill="#F15F22" points="28.722,0 0,28.722 0,29.386 29.386,0 "/>
<polygon fill="#F15F22" points="51.018,0 0,51.02 0,51.684 51.683,0 "/>
<polygon fill="#F15F22" points="56.592,0 0,56.592 0,57.258 57.256,0 "/>
<polygon fill="#F15F22" points="62.164,0 0,62.164 0,62.832 62.831,0 "/>
<polygon fill="#F15F22" points="45.444,0 0,45.446 0,46.11 46.109,0 "/>
<polygon fill="#F15F22" points="34.295,0 0,34.297 0,34.961 34.96,0 "/>
<polygon fill="#F15F22" points="39.869,0 0,39.871 0,40.535 40.534,0 "/>
</svg>
